<?xml version="1.0" encoding="UTF-8"?>

<!--
Source/Reference: https://zerc20.io
-->

<svg id="zmark" data-name="zmark" xmlns="http://www.w3.org/2000/svg" version="1.1" viewBox="0 0 500 500" fill="#111827">
<path d="M419.32,325.58c-1.59-5.21-4.36-6.91-9.35-5.84-4.68.96-9.56-1.7-13.6-1.91-12.43-.64-24.01-.32-36.44-.21-2.02,0-4.36-1.28-5.1-3.19,3.29-1.06,6.16-.42,9.46-.42h22.44l-4.2-2h-108.82l3.79-7-37.82-.3c2.5-3.7,24.6-5.8,27.4-7.7h110.21c1.58,0,4.22-3.38,5.28-5.07l-19.64-.74-15.63-.95c7.92-4.65,10.35,2.85,18.69-10.24l-46.78-.21,2.31-7.46,10.72-3.15c4.2-1.26,7.67-.95,10.62-4.73,4.1-5.26,10.3-3.78,18.18-13.14,2.1-4.52,4.31-7.67,8.51-10.62,7.36-5.05,13.66-10.62,19.76-16.92l9.35-9.78c1.16-1.26,1.37-3.36.53-4.84l-1.16-1.89,6.62-1.16,3.78-.63c.63-.11.42-2.84,0-3.47-1.89-3.26-7.57-4.94-12.19-3.99l-.74-10.83-6.62-1.05c-1.26-3.89,3.15-4.31,5.89-5.57,4.1-1.89,6.94-3.15,12.09-2.52,1.26.11,4.2-1.26,3.89-2.42-1.47-4.52-8.3-2.84-7.36-5.36l1.79-4.62.74-13.66c7.15-9.14-7.46-15.87,2-15.98l17.36-.22c.77-3.96.66-7.48-.55-10.78h-15.65c-4.3,0-10.3-.2-13.9-1.5-3.4-5.2-6.9-7.5-13.2-7.5h-252.25c-5.4,0-9.9,3.3-10.9,8l27.44.33c-.11,4.36-.55,8.29-1.64,11.67l-19.25.32c-1.58,0-.74,4.01.42,4.96,3.38,2.75,1.16,7.18.21,10.88-1.16,4.22.32,10.03-1.06,13.84l-1.58,4.33c-1.06,2.85,5.49,2.22,6.13,3.27.42.74.42,3.17,0,4.01-.84,2.01-3.38-1.8-15,3.17-3.17,1.37-6.65,2.11-6.44,5.81,1.9,0,6.13.21,6.65,1.48.95,2.22,1.16,7.08,1.37,10.25,6.44-.84,13.1.84,15.1,7.82l-9.08,1.16c2.53,3.06,14.89,5.6,20.28,5.7h96.06c0,.1-9.31,9.83-9.31,9.83-6.07,6.28-12.55,12.03-19.67,16.95-12.24,8.47-8.47,14.02-19.46,19.25-16.11,7.74-4.08,5.96-19.67,10.36l-8.79,2.51c-.73.21-2.72,0-2.72.63l-.21,2.93-2.2,3.24,1.46,1.26,2.62,1.05,7.43-1.05,2.09,1.05,25.11-1.05,2.09,1.05h2.15l3.38-.87c.44,0,.22.44.33,1.85-9.91,10.46-11.44,5.55-14.7,6.75l-2.94,1.09c-.54.22.44,1.52.87,1.85.22,0,1.96-.76,1.96-.76l5.45,1.09,2.18-1.09,2.18,1.09,2.18-1.09,17.53,1.09h1.24l.69,1.18-5.2,3.82c-.2.1-1.86,0-2.16,0h-107.42l-25.7,4.5-2,1.6c-.4.3-.3,1.9.2,1.9l3.2,1h19.62s1.3-1,1.9-1h2c0-.11,10.11.78,10.11.78-2.56,4.22-8.78,8.22-8.78,8.22l-34.03.2c-4.1,4.1,23.6.2,34.4,3.2,13.4,3.7,15.1.3,15.9,3.6.5,1.8,1.1,3.5,1.7,4h31.15l.33,9.35c0,.66-2.64,1.65-3.3,1.65h-21.79c-1.05-.1-4.62.42-4.72,1.47l-.52,7.87c0,.63-1.36,2.1-2.1,2.1l-6.72.31-1.26,5.04c-.31,1.15-7.66.21-13.23.21-2.41,0-3.78,4.2-3.04,6.4.52,1.68,3.67,2.52,6.19,3.67l.42,8.5,2.83,1.89c.42.21,1.05,1.47.63,1.57-.42.21-2.52.94-3.04.94h-61.99c-.42,0-1.48-.11-2.75-.21s-3.8,2.32-2.85,3.59l2.64,3.38c2.01,2.53-1.16,10.24,2.22,10.24l72.46.21c.95,3.8,1.48,9.2,4.76,10.04,6.02,1.48,7.82-.42,13.42,1.27.42.11-.53,1.48-.95,1.48h-5.93s-3.05.74-2.74,1.05c.63.74,1.37.95,1.37.95h2.21l114.08,1,130.41-1h2.21l2.11,1h57.12s-4.46-2.13-4.46-6.59-4.09-6.41-4.09-6.41h-10.66l-4.2-3h-71.62c0-.11-.85-9.78-.85-9.78-2.02-1.59-4.14-4.36-2.44-7.22l71.22-.21c-1.68-2.21-2.63-2.84-3.68-3.68-2.21-1.79.42-6.84-1.68-9.47-3.05-.53-5.47-1.58-6.11-3.26-.63-1.47.21-6.11,2-6.11l15.26-.53-.21-3.68c0-.95,2.63-1.47,3.68-1.58l5.89-.53.63-10.95h28.92c0-.1,1.7-5,1.7-5h-26.68l-6.42-5.42Z" />
</svg>
