<?xml version="1.0" encoding="UTF-8"?>
<svg id="zERC20" xmlns="http://www.w3.org/2000/svg" version="1.1" viewBox="0 0 2000 500">

<!--
Original content & materials: zerc20.io (all rights reserved by respective owner)
Source/Reference: https://zerc20.io
-->

<!-- layer a -->
<path d="M1920,210v5h-48v.8c.3.27.45.67.45,1.2h31.55v2h-11.72s.44,2.65.72,4.41v4.59h-1v6h-20v7h18v7h5v6h-2v7h-15v9h23v9h-23.04l-.45,4h9.5v4.2c0,.8-.16,1.73-.46,2.8h5.91c-.31.53-.46,1.2-.46,2v2h9v7h11v2.2c-.26,1.05-.39,2.12-.39,3.2,0,1.07-.14,2.27-.4,3.6h-1.2l-.4,4h-24.83c-.29,1.5-.6,3-.9,4.5,0,1.5-.29,3-.89,4.5h15.87l-1.2,6h-10.65l-2.71,9h-6.97l-2.81,7h-8.72c-.61,1.5-1.35,3-2.25,4.5-.63,1.56-1.38,3.06-2.25,4.5h-11.85c-.9,1.5-1.79,3-2.69,4.5l-2.71,4.5h22.65c-1.19,1.5-2.4,3-3.6,4.5-.95,1.57-2,3.07-3.16,4.5h4.38l-2,2h8.55l-3.61,4h-15.87l-4,4h-7.18c-3.75,3.19-7.66,6.19-11.7,9h-29.21l-11.67,7h38.05c-4.53,2.4-9.07,4.4-13.59,6h13.2l-12.13,3.73c-4.15,1.27-8.36,2.36-12.6,3.27h1.53c-2.06.27-4.26.53-6.62.8-2.07.53-4.27.93-6.63,1.2h45.09c-4.13.53-8.55.93-13.27,1.2-4.42.27-9.14.4-14.14.4-4.72,0-9.43-.13-14.15-.4-4.42-.27-8.69-.67-12.82-1.2h-45.53c-2.23-.3-4.45-.7-6.63-1.2-2.06-.27-4.27-.53-6.62-.8h.21c-9.34-1.87-17.58-4.2-24.74-7h-13.31c-4.8-1.6-9.2-3.6-13.2-6h-38.83c-2.11-1.21-4.3-2.3-6.53-3.27-1.87-1.24-3.73-2.49-5.6-3.73h30.04c-4.04-2.81-7.95-5.81-11.7-9h6.97l-4.01-4h14.64l-3.6-4h-9.12c-.8-.8-1.33-1.47-1.6-2h-4.44c-2.4-2.4-4.64-5.4-6.75-9h-22.88c-.9-1.5-1.79-3-2.69-4.5l-2.71-4.5h12.02c-.6-1.5-1.35-3-2.25-4.5-.86-1.44-1.61-2.94-2.24-4.5h9.39c-1.24-2.49-2.17-4.82-2.79-7h6.73l-2.71-9h10.11c-.23-.94-.49-1.88-.8-2.8-.26-1.07-.53-2.13-.79-3.2h4.35c-.3-1.5-.6-3-.9-4.5,0-1.5-.3-3-.9-4.5h-17.25l-.4-4h-6.53l-.92-7.65v-1.35h27.46c-.31-1.2-.46-2.25-.46-3.15v-3.85h-18.9l-.45-4h1.8c-.3-1.07-.45-2-.45-2.8v-4.2h-4.4l-.4-4h-1.8c0-1.5-.13-3-.4-4.5v-4.5h-1.6c0-1.5-.13-3-.4-4.5v-4.5h3v-6h8v-7h-6v-7h-1v-6h-17.44c.29-1.24.44-2.33.44-3.27v-3.73h26v-9h3.53c.29-.53.44-1.2.44-2h33.03v-3h-24.4l.39-4h-12.84l.47-1.87c0-2.18.15-3.89.47-5.13h-5.29c.27-1.07.4-2,.4-2.8,0-1.07.13-2.13.4-3.2h1.41c.26-.53.39-1.2.39-2s.14-1.47.4-2h5.74c.32-1.24.63-2.33.94-3.27.32-1.24.63-2.49.94-3.73h-27.07c.62-1.24,1.09-2.33,1.4-3.27.3-1.24.62-2.49.92-3.73h6.5l2.81-7h-48.08l3.6-8h24.11l.8-2h20.78c1.19-3,2.84-6,4.95-9h-11.92l1.2-2h16.36c1.15-1.43,2.2-2.93,3.14-4.5,1.21-1.8,2.4-3.3,3.61-4.5h13.2s1.18-1.7,1.77-2.58c.89-.88,2.21-2.42,2.21-2.42h1.53c.8-.53,1.48-1.21,2-2,.8-.8,1.46-1.47,2-2h-1.78l8.4-7h.4l9.81-7h.77l7.19-4c.54-.53,1.07-.93,1.6-1.2l2.4-.8h-8.26s1.33-1.14,2.21-1.44c.89-.29,2.2-1.56,2.2-1.56h4.96c1.55-.78,3.15-1.45,4.8-2,1.7-.74,3.44-1.41,5.2-2h4.37c1.07-.53,2-.93,2.81-1.2,1.06-.27,2.12-.53,3.2-.8h-.57c1.47-.53,2.8-.93,3.98-1.2l4.43-.8h.87c6.87-1.35,13.81-2.42,20.79-3.2,7.36-.8,15.03-1.2,22.99-1.2,15.03,0,29.48,1.47,43.32,4.4h-.87l4.42.8c1.47.27,2.8.67,3.98,1.2h1.64c1.06.27,2,.53,2.8.8,1.07.27,2.13.67,3.21,1.2h-2.24c1.87.53,3.61,1.2,5.2,2,1.87.53,3.61,1.2,5.2,2h-3.87l4.86,3h9.06l1.59.8c.8.27,1.6.67,2.4,1.2h.15l7.2,4h-.78c1.87,1.24,3.58,2.49,5.13,3.73,1.87.93,3.58,2.02,5.13,3.27h-1.36c1.47,1.17,2.87,2.41,4.21,3.73,1.24.93,2.49,2.02,3.73,3.27h1.77c.8.53,1.46,1.2,1.99,2,.8.8,1.47,1.47,2,2h-.93l3.61,4h-12.63s2.2,3.28,3.09,5.05c1.18,1.47,3.54,4.95,3.54,4.95h-16.3l1.2,2h12.4c.9,1.2,1.8,2.7,2.71,4.5.89,1.5,1.79,3,2.69,4.5h-20.76l1.19,2h-23.61l3.6,8h47.87l2.79,7h-7.2c.32,1.24.63,2.49.94,3.73.32.93.62,2.02.94,3.27h-3.62l1.4,7h20.78c.53,1.6.8,2.93.8,4h3.17c.27,1.07.4,2.13.4,3.2.27.8.4,1.73.4,2.8h1.12c.3,1.24.46,2.96.46,5.13,0,.93.16,1.56.47,1.87h26.6ZM1732.67,182.46c-4.71,0-8.98,1.18-12.81,3.54h25.64c-3.24-2.36-7.51-3.54-12.82-3.54h0ZM1805.44,214c0-1.33-.14-2.4-.44-3.2v-.8h-26.6c0-1.24-.15-2.33-.47-3.27,0-1.24-.15-2.49-.47-3.73h-1.54c-.23-.94-.5-1.88-.8-2.8,0-1.07-.26-2.13-.8-3.2h-3.17c-.3-1.07-1.03-2.4-2.21-4h-20.77c-.59-.8-1.18-1.6-1.77-2.4-.58-.79-1.34-1.47-2.21-2-1.43,1.29-2.62,2.77-3.53,4.4h-6.19c-.29.53-.59,1.2-.89,2-.29.53-.73,1.2-1.32,2h-1.41c-.27,1.07-.53,2.13-.8,3.2-.27.8-.53,1.73-.8,2.8h5.71c-.3,1.24-.62,2.49-.94,3.73v3.27h9v4h62.44ZM1788.59,219c0-.8-.16-1.47-.45-2h-52.14v2h-2.88c0,1.17-.14,2.65-.12,4.41v4.59h-27v7h18.45c0,1.24-.15,2.49-.45,3.73v2.27h2v7h5v7h-7v6h-3v9h2v9h1v4h5v7h-1v4h18.56c.3.8.44,1.73.44,2.8v4.2h-26.99l1.34,9h6.53l1.2,4h17.01c1.5,3.9,3.45,6.9,5.85,9h-4.5c3.9,3.9,9.15,5.85,15.75,5.85s12.3-1.95,16.2-5.85h-16.2c2.1-2.1,3.9-5.1,5.4-9h25.16l1.2-4h1.37l1.35-9h-12.68v-1.1c1.03-.88,1.17-1.77,1-2.65v-3.25h-9v-4h-5v-7h-9v-4h23v-9h-23v-9h15v-6h1v-7h-4v-7h-19v-6h20v-7h1v-9h11.59Z" fill-opacity=".95"/>

<path d="M1573,398v2h45.98c0,1.33-.44,2.67-1.33,4h-48.6l-4.42,5h20.33s-3.53,1.88-6.19,2h-254.65c-2.66-.12-6.19-2-6.19-2h-20.33l-2.66-1.66c-.59-.88-1.77-3.34-1.77-3.34h48.55c-.53-1.07-1.07-2.4-1.6-4h-46.12v-2h48v-7h-38v-2h-25v-7h53v-6h-48v-9h16v-4h13v-9h-7v-3.87c.32-1.56.62-3.27.94-5.13h22.86c.32-1.24.62-2.33.94-3.27.62-1.24,1.09-2.49,1.4-3.73h-29.97c.53-.53.93-1.2,1.2-2,.53-.8,1.06-1.47,1.59-2h1.57c1.57-1.89,3.32-3.64,5.21-5.21l5.21-3.79h.54-.15c1.07-.53,2-1.2,2.8-2,.8-.8,1.73-1.47,2.79-2h2.66c.53-.53,1.06-.93,1.59-1.2.54-.27.94-.53,1.2-.8h.34c1.48-1.19,3.04-2.28,4.66-3.27,1.87-1.24,3.43-2.49,4.68-3.73h-3.94c1.07-.53,2-1.2,2.8-2,.8-.8,1.73-1.47,2.79-2h1.37l9.8-7h4.06c2-1.43,3.95-2.93,5.85-4.5,2.1-1.8,4.19-3.3,6.3-4.5h-17.45c2-1.43,3.95-2.93,5.85-4.5,2.1-1.8,4.19-3.3,6.3-4.5h17.71c.54-.53,1.07-.93,1.6-1.2.53-.27.93-.53,1.2-.8h2.66c1.03-.51,1.98-1.19,2.8-2,.8-.8,1.73-1.47,2.8-2h-21.03c2.4-1.5,4.5-3,6.3-4.5,2.1-1.8,4.05-3.3,5.85-4.5h-2.19l2.4-2h16.48s1.18-1.61,1.77-1.9c.59-.29,1.33-1.1,1.33-1.1h-36.36l11.7-9h42.47l2.39-2h-32.81l8.39-7h19.49l4.8-4h-24.15c1.72-1.42,3.37-2.93,4.95-4.5,1.8-1.8,3.3-3.3,4.51-4.5h44.23c.53-.53.93-.93,1.2-1.2.27-.27.53-.53.8-.8h-12.06c.79-.53,1.47-1.21,1.99-2,.8-.8,1.47-1.47,2-2h-47.24c2.49-2.49,4.36-4.82,5.6-7h29.43l4.95-9h14.97c1.5-3.6,2.24-6.6,2.24-9h14v-2h11v-3.8c0-1.07-.14-2.13-.44-3.2h-15.47l-.89-2h-26.09l-1.32,2h10.44c-.62,1.24-1.25,2.49-1.87,3.73-.3.93-.77,2.02-1.4,3.27h-17.2l-.79,2h-8.85c-.29.6-.45,1.2-.45,1.8s-.15,1.2-.45,1.8c-.29,1.2-.74,2.25-1.34,3.15-.61.9-1.21,1.65-1.8,2.25h-32.52c-1.82,2.12-4.1,3.48-6.82,4.09-2.42.61-5.16.91-8.19.91h-85.44c-3.94,0-6.82-1.67-8.64-5h35.89c-.9-1.5-1.35-3.15-1.35-4.95v-4.05h9v-2h17v-3.8c.29-1.07.44-2.13.44-3.2h-10.08c0-.8.14-1.47.43-2h-15.78v-1.2c.3-.27.44-.53.44-.8h-33.6c.3-.53.44-1.2.44-2s.14-1.47.44-2h34.46l2.24-9h-6.17c0-.27.27-.93.8-2h-45.55c.32-1.24.78-2.33,1.4-3.27.32-1.24.62-2.49.94-3.73h67.93c.62-1.24,1.24-2.33,1.87-3.27.62-1.24,1.09-2.49,1.39-3.73h-49.2c.9-1.5,1.8-3,2.69-4.5.9-1.8,1.8-3.3,2.71-4.5h9.38c.54-.53,1.07-1.2,1.6-2,.53-.8.93-1.47,1.2-2h28.08c.8-.8,1.33-1.47,1.6-2h-25.39c.53-.53,1.07-1.2,1.6-2,.53-.8,1.06-1.47,1.6-2h22.71l2.2-3h-3.17c2.69-3.29,5.7-6.31,8.99-9h10.22l2.39-2h-20.97l2.39-2h15.16s2.18-1.36,3.09-2.26c1.18-.88,3.1-2.74,3.1-2.74h26.86l6.4-4h17.86c3-1.8,6-3.45,8.99-4.95,3.25-1.48,6.55-2.83,9.91-4.05h-43.22c.8-.53,1.6-.93,2.4-1.2.94-.23,1.87-.5,2.8-.8h-16.08c1.47-.53,2.65-.93,3.53-1.2l3.54-.8h78.69c15.04-4,31.39-6,49.08-6,20.33,0,38.46,2,54.37,6h-78.69c1.47.27,2.8.53,3.98.8,1.18.27,2.36.67,3.54,1.2h16.65c1.06.27,1.99.53,2.8.8,1.07.27,2,.67,2.81,1.2h43.45c3.61,1.2,6.9,2.55,9.91,4.05,3.24,1.47,6.39,3.12,9.45,4.95h-17.52c1.12.57,2.19,1.24,3.2,2,1.01.76,2.08,1.43,3.21,2h-26.2l5.75,5h-15.34l2.4,2h21.91l2.39,2h-10.56c1.5,1.2,3,2.7,4.5,4.5,1.44,1.42,2.79,2.93,4.06,4.5h3.01s.59.81.89,1.1c.3.3.89,1.9.89,1.9h-22.4c.53.53.93,1.2,1.2,2,.53.8,1.06,1.47,1.59,2h25.86l1.2,2h-27.69c.8,1.33,1.47,2.67,2,4h-9.21l4.05,9h48.97c.63,1.24,1.1,2.49,1.4,3.73.32.93.62,2.02.94,3.27h-70.51c.62,1.24.94,2.49.94,3.73.3.93.62,2.02.94,3.27h48.06v.65c.29.3.45.75.45,1.35h6.3c.89,3,1.34,6,1.34,9h21.73l.4,4h-40.63c.27.53.4,1.2.4,2h27.01v2h15v7h-10c0,.8-.13,1.47-.4,2h-15.21c0,1.5-.16,3-.45,4.5,0,1.5-.16,3-.45,4.5h-15.01c-.29,1.5-.6,3-.9,4.5-.31,1.54-.76,3.05-1.34,4.5h-29.1c-.32,1.24-.63,2.49-.94,3.73-.32.93-.78,2.02-1.4,3.27h46.84l-1.6,4h12.23l-1.2,2h-44.23c-.63,1.56-1.38,3.06-2.25,4.5-.86,1.44-1.61,2.94-2.24,4.5h23.79c-.27.53-.67,1.2-1.2,2-.27.8-.67,1.47-1.2,2h-19.46l-4.66,7h32.34l-1.2,2h-42.44l-7.64,9h35.87s-.59.81-.89,1.1c-.29.29-.87,1.9-.87,1.9h-16.47l-1.99,2h2.62l-9.45,9h20.63c-.53.53-1.19,1.2-1.99,2-.8.8-1.6,1.47-2.4,2h-2.54l-2,2h-17.7l-10.8,9h17.44c-1.89,1.57-3.85,3.07-5.85,4.5-1.89,1.57-3.85,3.07-5.85,4.5h-3.61l-9.81,7h-1.37c-1.12.57-2.19,1.24-3.2,2-.8.8-1.6,1.47-2.4,2h3.95c-1.25.93-2.64,2.02-4.21,3.27l-4.66,2.8-.94.93h-.18l-1.76,1h93.28l4.42,1h-1.96c1.6.8,3.21,2.13,4.8,4h.45c1.21,1.5,1.8,3.75,1.8,6.75v2.25h-1v4h29v7h-22v9h6v9h-13v4h-16v9h48v7h-52v6h25v2h38v7h-48ZM1435.35,188h40.86c-1.18-1.87-2.95-3.2-5.3-4h-22.11c-1.76-.8-4.56-1.2-8.39-1.2-2.95,0-5.6.4-7.96,1.2h-34.93c-1.44.25-2.8.8-3.98,1.6-1.17.8-2.36,1.6-3.53,2.4h34.14c-.27.27-.53.53-.8.8-.27.27-.53.67-.8,1.2h13.61c0-.27-.27-.93-.8-2h0Z" fill-opacity=".95"/>

<path d="M1333,199v2h-10.44c.28,1.47.44,2.95.44,4.42v4.58h-79.55c0,3.94-1.97,6.97-5.91,9.09-1.82.61-3.18.91-4.09.91h-91.64l-3.54-1h-72.26v2h38.44c-.28,1.5-.44,3-.44,4.5v4.5h-14.8s-.44,1.37-.2,2.26v1.74h1v5h-7v9h22v2h-72v4h23v9h45v2h-19v3h-11v9h33.57c.29,1.07.43,2.13.43,3.2v2.8h12v3h-57v4h-12v2h57v1h88.65c5.62,0,8.86,2.67,9.75,8h65.6v6h-3.16l-.89,9h-5.13l-.39,4h11.47l-.44,3h-2.68c-.27.53-.4,1.2-.4,2h14.96l-1.4,7h-14.47c0,.31-.15.62-.47.93v1.07h-3.73c-.33,1.29-.8,2.54-1.4,3.73-.3.93-.62,2.02-.94,3.27h6.06c0,.27-.26.93-.79,2h-9.1c-.56,1.39-1.23,2.72-2,4-.56,1.38-1.22,2.72-1.99,4h8.74l-4.2,7h4.21l-4.66,7h-2.45c-1.27,1.57-2.63,3.07-4.06,4.5-1.26,1.57-2.61,3.08-4.05,4.5h-3.57c-.27.27-.54.53-.8.8-.27.27-.67.67-1.2,1.2h-19.22l-1.99,2h88.85c-1.79,1.5-3.6,3-5.4,4.5-1.89,1.57-3.85,3.07-5.85,4.5h-4.47c-3.11,2.18-6.85,4.51-11.2,7h-92.82c-3.05,1.83-6.21,3.48-9.45,4.95-3.35,1.22-6.66,2.57-9.91,4.05h72.83c-.8.27-1.73.53-2.8.8-.8.27-1.73.67-2.79,1.2h-18.32l-3.21.8c-1.06.27-2.13.67-3.2,1.2h-32.17c-10.61,3.11-21.52,5.45-32.71,7h7.08c-4.72.62-9.58,1.09-14.6,1.4-5.01.31-10.02.47-15.03.47-5.6,0-11.05-.16-16.36-.47-5.02-.31-10.02-.78-15.04-1.4h-7.06c-11.79-1.55-22.7-3.89-32.72-7h31.52c-1.02-.52-2.1-.92-3.21-1.2-.79-.27-1.73-.53-2.8-.8h17.52l-5.6-2h-73.09c-3.07-1.53-6.22-2.88-9.45-4.05-3.06-1.53-6.06-3.19-9-4.95h94.16c-1.8-1.21-3.67-2.3-5.6-3.27-1.76-1.17-3.47-2.42-5.13-3.73h5.23c-3.66-2.75-7.11-5.76-10.35-9h-89.32c-.27-.53-.53-.93-.8-1.2s-.67-.53-1.2-.8h19.24c-.25-.52-.67-.95-1.19-1.2-.27-.27-.54-.53-.8-.8h3.49c-2.64-2.92-5.18-5.93-7.64-9h2.82l-4.2-7h-3.77l-4.2-7h-8.92l-3.6-8h9.05l-.8-2h-5.73c-.27-1.1-.58-2.19-.93-3.27-.33-1.29-.8-2.54-1.4-3.73h3.56l-.8-2h13.71c-.27-1.1-.57-2.19-.92-3.27-.32-1.24-.63-2.49-.94-3.73h-7.05c-.27-.53-.4-1.2-.4-2h-7.54l-.44-3h.4c0-1.07-.27-2.4-.8-4h-25.31l-1.2-8h34c-.31-1.24-.47-2.33-.47-3.27,0-1.24-.16-2.49-.47-3.73h7.82v-2.87c.61-.88.46-1.77,0-2.65v-3.48h-57v-2h13v-5h57v-2h-12.56c0-1.24-.14-2.33-.44-3.27v-3.73h-34v-8h12v-2h18v-3h-46v-9h-22v-4h72v-2h-22v-9h7v-4h-1v-5h15v-9h-38v-2h85v-2.22c.44-1.18,0-3.1,0-3.1v-3.69h-23v-5c.27-1.33.53-2.67.8-4h12.8c.27-.53.4-1.2.4-2h-89.84c.27-.53.4-1.2.4-2s.13-1.47.4-2h80.48l2.25-9h-18.08l1.2-4h-29.56l.88-3h9.81c.27-.53.53-1.2.8-2,.27-.8.53-1.47.8-2h-4.7l1.6-4h2.21c.55-1.13,1.18-2.22,1.87-3.27.63-1.24,1.09-2.49,1.4-3.73h.25l4.2-7h-1.22c.47-.97,1.01-1.9,1.59-2.8l2.4-3.2h-3.39c1.19-1.5,2.39-3,3.6-4.5,1.19-1.8,2.4-3.3,3.6-4.5h-3.95c.27-.53.53-.93.8-1.2.26-.27.53-.53.8-.8h-4.35l2.21-3h-.78c.53-.53.93-.93,1.2-1.2.27-.27.53-.53.8-.8h-7.62c.53-.53,1.2-1.2,2-2,.8-.8,1.6-1.47,2.39-2h10.61c1.48-1.19,3.04-2.28,4.66-3.27l4.66-3.73h-4.94l3.2-2h-7.17c.53-.53,1.06-.93,1.59-1.2.53-.27,1.07-.53,1.6-.8h22.81c2.11-1.21,4.3-2.3,6.53-3.27,2.17-1.24,4.36-2.49,6.53-3.73h-1.17c1.55-.78,3.15-1.45,4.8-2,1.6-.8,3.21-1.47,4.8-2h8.91s1.76-1.56,2.65-1.86c1.18-.3,3.54-1.14,3.54-1.14h-13.27c8.84-3.42,18.27-5.76,28.29-7h11.94c11.49-1.87,23.58-2.8,36.26-2.8s24.32.93,35.81,2.8h-11.49c9.72,1.24,19.45,3.58,29.18,7h13.26s2.21.85,3.1,1.14c1.17.29,3.53,1.86,3.53,1.86h-7.87c4,1.33,7.33,2.67,10,4h1.49c2.37,1.18,4.7,2.42,7,3.73,2.24.96,4.42,2.05,6.53,3.27h-22.73c.53.27,1.07.53,1.6.8s1.06.67,1.6,1.2h7.82c.53.27,1.07.53,1.6.8s.93.67,1.2,1.2h4.76l9.33,7h-11.04l4.8,4h8.34l2.4,2h.56l2.21,3h4.52l2,2h4.02c1.21,1.2,2.4,2.7,3.61,4.5,1.19,1.5,2.4,3,3.6,4.5h3.24c.76,1,1.43,2.08,2,3.2.8.8,1.46,1.73,2,2.8h1.43c.63,1.24,1.25,2.49,1.87,3.73.62.93,1.25,2.02,1.87,3.27h-1.07c.62,1.24,1.24,2.49,1.87,3.73.62.93,1.09,2.02,1.39,3.27h-2.23l1.2,4h3.96l1.2,4h-8.81v1.8c.27.27.4.67.4,1.2h26.8c0,1.07.27,2.4.8,4h-37.13l1.35,9h25.83l.44,4h53.5ZM1129.87,186h31.38c-4.71-1.77-10.01-2.65-15.91-2.65s-11.05.88-15.47,2.65ZM1207.04,206.85c-.27-1.06-.57-2.11-.9-3.15-.3-.9-.76-1.8-1.35-2.7h9.9l-1.2-2h-53.11c-.3-.8-.74-1.47-1.33-2-.52-.72-1.11-1.39-1.77-2h-100.36c-.29.53-.73,1.2-1.32,2-.3.53-.74,1.2-1.33,2h91.47l-.8,2h-14.85c-.6,1.2-1.05,2.7-1.35,4.5-.3,1.5-.6,3-.9,4.5h80.54l-1.34-3.15h0ZM1154.19,301h-56.6l1.33,7h-33.85c.49,1.48,1.03,2.95,1.6,4.4.53,1.07,1.2,2.27,1.99,3.6h25.56c.53.8,1.07,1.6,1.6,2.4l1.59,1.6h-.71l2.2,3h7.52c.59.27,1.17.67,1.77,1.2l1.76.8h7.08c5.02,2.4,11.05,3.6,18.13,3.6s12.97-1.2,17.68-3.6h-14.6l3.54-2h2.65l2.66-3h-11.33c.53-.53,1.06-1.07,1.6-1.6.79-.8,1.33-1.6,1.59-2.4h5.24c1.6-2.4,2.94-5.07,4.01-8h3.3l.89-2.33c.59-1.87,1.17-3.42,1.77-4.67h0Z" fill-opacity=".95"/>

<path d="M948.29,234h-21.64l-.93,3.73c-.31.93-.78,2.02-1.4,3.27h12.38l-1.2,4h-10.64c-.9,2.7-2.1,5.7-3.6,9h-6.56c-1.2,3-2.85,6-4.95,9h.98c-1.15,1.43-2.2,2.93-3.15,4.5-.95,1.57-2,3.07-3.15,4.5h47.96l-6.07,7h-39.63c-1.07,1.33-2.4,2.67-4,4-1.53,1.27-2.99,2.6-4.4,4h5.55c-1.24,1.24-2.8,2.49-4.67,3.73-1.63.98-3.19,2.07-4.67,3.27h14.83l-1.8,1.35,4.05,7.65h-10.69l4.95,9h1.35l1.2,2h-.42l4.5,9h4.51l2.4,4h-34.01l3.73,7h30.98l2.4,4h-9.7l3.73,7h43.63l4.95,9h-29.32l3.73,7h-13.73l6.93,13h3.29l2.4,4h-1.14l1.2,2h-20.7l4.84,8.8.88,2.2h-13.53l2.25,4.95c.89,1.16,1.36,2.59,1.35,4.05h9.45v1.14s-1.72,5.89-4.37,7.86h11.94c-1.47,1.28-3.39,1.87-5.75,2h-90.63c-1.77-.13-3.39-.28-4.86-.58-1.18-.59-3.98-1.42-3.98-1.42h-11.85c-2.4-1.2-4.5-2.7-6.3-4.5-1.5-1.8-2.7-3.3-3.6-4.5h-8.72l-.9-1.35-3.15-7.65h15.37l-1.35-2h-42.84v2h-23v9h36.45c-.6,4.2-2.55,7.2-5.85,9h-3.49s-4.3,1.87-6.63,2h-86.65c-2.65-.13-6.19-2-6.19-2h3.54s-5.16-4.62-5.75-9h-36.42v-.19c.76-.29,1-.88,1-.88v-7.93h22v-2h44v-9h-47v-2h28v-4h-9v-7h15v-7h-25v-6h34v-9h-20v-7h1v-2h-4v-2h-12v-7h16v-4h-4v-9h0v-2h-2v-9h11v-9h-15v-7h-6v-8h39v-7h-47v-9h-1v-9h7v-9h9v-4h-12v-7h22v-4h32v-4h-44v-3h2v-2h4v-2h0v-4h0v-7h1v-9h-2v-4h2v-7h-1v-2h0v-5h1v-2h-2v-2h3v-6h4v-7h-21v-9h6v-9h-3v-6h12v-7h4v-7h-8v-4h3v-2h1v-7h.9c0-3.3,1.35-6.3,4.05-9h23.86s4.27-2.61,7.52-3h130.86c12.67.39,35.37,3,35.37,3h-23.73c12,1.8,23.4,4.8,34.2,9h-1.59c5.33,1.88,10.48,4.23,15.4,7h-1.1l3.6,2h-3.01c1.33.53,2.4,1.2,3.2,2,1,.76,2.08,1.43,3.2,2h8.06l4.67,3.73c1.53.91,2.94,2.01,4.2,3.27h-4.85c1.55,1.24,2.8,2.49,3.73,3.73,1.24.93,2.49,2.02,3.73,3.27h-11.86c1.01,1,1.94,2.07,2.8,3.2.8.8,1.6,1.73,2.4,2.8h2.43c2.4,3,4.5,6,6.3,9h-4.52c.9,1.2,1.65,2.7,2.25,4.5l2.7,4.5h20.66l2.8,7h-3.5l.8,3.2c.53.8.93,1.73,1.2,2.8h-4.27l.8,2h1.76c.31.62.47,1.4.47,2.33l1.4,4.67h1.3c0,.8.13,1.47.4,2h.44c.31,1.24.47,2.49.47,3.73.31.93.47,2.02.47,3.27h-5.95v2c0,.8.13,1.47.4,2h2.6v4.52c.57,1.46,0,4.42,0,4.42v4.06h4v3h-3v4h-4.56c0,.27-.15.53-.44.8v1.2h4.44c0,.27-.15.53-.44.8v2.2h18.8c-.27.53-.4,1.2-.4,2h7.49l-.4,4h-20.4c-.53,1.6-.8,2.93-.8,4h0ZM771,226h44v4h-32v1h32.62c2.06-.51,4.86-1,4.86-1h20.76c2.91-.79,5.63-2.15,8-4h-5.66l2-2h-20.67l1.77-3h-4.36l1.2-2h4.48l1.33-5h2.23c.27-.53.4-1.2.4-2h-2.64l.43-4.33c0-2.89-.43-5.78-1.3-8.67h-2.75c-.27-.53-.53-1.2-.8-2,0-.8-.27-1.47-.8-2h6.24c-1.24-2.49-2.96-4.82-5.13-7h-.9c-.82-.81-1.76-1.49-2.8-2h-1.96c-2.95-1.33-6.04-2-9.28-2h-32.27v2h-1v2h2v7h-2v4h2v9h-2v7h0v4h1v2h-4v3h-3v2h0ZM806.45,327l-1.78-4h-6.04l-3.37-8h-17.26v8h4v4h24.45,0ZM767,327v7h8.87l-2.8-7h-6.07ZM807.24,336l-.8-2h-27.44v2h2v2h1v7h19v9h-33v6h25v7h-16v7h10v4h-28v2h62.67l-1.33-2h.49l-2-4h-3.7l-2.6-6.5-3.03-6.5h14.18l-3.27-7h28.86l-4.05-9h-43.66l-2.8-7h9.69l-1.2-2h0Z" fill-opacity=".95"/>

<path d="M651.16,334h34.84v6h-67v9h43v9h-38v9h5v7h-3v4h-10v5h0v4h9v9h13v2.8c0,.53-.15.93-.44,1.2h-78.69c-.29.53-.44,1.2-.44,2h30.98c-.93,3.11-2.65,5.44-5.13,7h-8.26s-3.54,1.87-6.19,2h-230.33c-2.33-.13-6.63-2-6.63-2h8.53c-2.18-1.56-3.89-3.89-5.13-7h-30.94c-.29-.53-.44-1.2-.44-2h79.14v-4h-13v-9h-9v-4h1v-5h9v-4h3v-7h-5v-9h38v-9h-43v-9h67v-6h-35v-5h10v-4h4v-5h-49v-4h-11v-7h41v-2h-33v-4h10v-4h7v-7h-1v-9h-4v-9h-7v-4h5v-9h-4v-4h7v-7h2v-7h8v-2h-8v-9h-7v-7h2v-6h1v-9h7v-9h-10v-9h1v-8h12v-7h-6v-7h-4v-2h19v-7h33v-4h-13v-4h-43v-2h5v-7h0v-7h1v-9h0v-11h-1v-3.43c0-1.14.15-2,.44-2.57h-4.42c1.18-6,5.01-9,11.49-9h226.8c6.78,0,10.61,3,11.5,9h4.29s.44,1.15-.1,2.33v3.67h1v11h1v9h-2v7h0v7h-5v2h43v4h14v4h-33v7h-19v2h4v7h7c-.62,3.11-1.71,5.44-3.27,7h-12.51c-2.07,2.67-5.04,4-8.89,4h-133.34v4h-1v9h10v9h-7v5h122.99c3.24.46,8.4,4,8.4,4h-1.26c1.56,1.55,2.64,3.89,3.27,7h-1.4v6h7v9h7v2h-7v7h-2v7h-7v4h5v9h-6v4h7v9h4v1.73c0,3.33-.74,5.76-2.21,7.27h.89c-2.36,3.33-5.6,5-9.73,5h-122.94v2h-7v4h-10v4h33v2h-41v7h12v4h49v4h135.81c1.47.66,3.54,1,3.54,1h-4.55c2.67.8,4.67,2.13,6,4h-9.85s1.92,3.76,2.21,4.94v.06Z" fill-opacity=".95"/>

<path d="M353.26,345h24.74v9h-23v9h-8v2h1v2h-14v7h5v9h4v2h-56v4h3v9h57v1.8c0,2.4-.93,4.8-2.8,7.2h10.8c-1.07,1.07-1.87,1.73-2.4,2h-12.6s-3.54,1.89-6.19,2H126.02c-2.95-.11-6.63-2-6.63-2h11.22c-.53-.27-1.33-.93-2.4-2h-10.4c-1.87-2.4-2.8-4.8-2.8-7.2v-1.8h-57v-9h-3v-4h57v-2h-4v-9h-6v-7h14v-2h-1v-2h9v-9h23v-5.89s-.05-2.5.24-3.11h-25.64l1.33-5h-12.76l1.2-2h-32.57c.27-.53.8-1.2,1.6-2h29.52c1.24-1.87,2.33-3.11,3.27-3.73l3.73-3.27h-32.96l7.2-6h86.82l4.4-4h-29.39l2.21-3h6.87l7.93-7h-39.77l4.4-4h-3.18l2.4-2h5.56l2.4-2h4.77l8.4-7h2.34l10.35-9h-2.7l9.2-8h1.27l10.8-9h-.98l5.31-5h-.77l7.29-6h-79.91l-7.52-3h-3.64c-.79-.53-1.47-1.21-2-2h8.21c-.53-1.07-1.07-2.4-1.6-4h-2.76c-.27-.53-.4-1.2-.4-2h-8.47v-9h-6v-3h2v-2h6v-2h10v-5h-5v-4h1v-13h2v-7h-2v-2h-1v-2h18v-4.19c0-1.46.29-3.06.88-4.81h-22.96c2.06-4.67,5.74-7,11.04-7h195.16c4.71,0,8.39,2.33,11.04,7h22.52c.88,1.17,1.32,2.77,1.32,4.81v4.19h-17v2h0v2h2v7h-1v13h-2v4h5v5h-10v2h-6v2h-2v3h7v9h8v2h3v.8c0,1.33-.13,2.4-.4,3.2h-7.6c0,.27-.27.93-.8,2h2.06c-.6,2.1-2.25,4.5-4.95,7.2l-2.25,1.8h.27l-4.4,4h.74l-10.35,9h-.7l-10.35,9h3.28l-10.35,9h-2.35l-7.93,7h-5.2l-2,2h-5.54l-2.4,2h3.18l-4.4,4h39.77l-7.93,7h-6.87l-2.21,3h29.39l-4.4,4h-86.23l-7.93,7h33.19l-5.83,5h87.36l5.31,1h-29.47c.8.27,1.73.93,2.8,2h32.93l1.2,2h12.88s1.18,3.25,1.77,5.01h0Z" fill-opacity=".95"/>

<!-- layer b -->
<path d="M1925,210v5h-48v.8c.3.27.44.67.44,1.2h30.56v2h-11.56s.44,2.65.56,4.41v4.59h-1v6h-20v7h18v7h4v6h-1v7h-15v9h23v9h-23.04l-.45,4h9.5v4.2c0,.8-.16,1.73-.46,2.8h5.91c-.31.53-.46,1.2-.46,2v2h10v7h11v2.2c-.26,1.07-.4,2.13-.4,3.2s-.13,2.27-.4,3.6h-1.19l-.4,4h-25.67c-.3,1.5-.6,3-.9,4.5,0,1.5-.29,3-.9,4.5h15.88l-1.2,6h-10.65l-2.71,9h-6.98l-2.79,7h-8.73c-.62,1.56-1.37,3.06-2.24,4.5-.63,1.56-1.39,3.06-2.25,4.5h-11.85c-.9,1.5-1.8,3-2.69,4.5l-2.71,4.5h22.65c-1.19,1.5-2.4,3-3.6,4.5-.95,1.57-2,3.07-3.16,4.5h4.38l-2,2h8.54l-3.6,4h-15.87l-4.01,4h-7.17c-3.75,3.19-7.66,6.19-11.7,9h-29.21l-11.67,7h38.05c-4.53,2.4-9.07,4.4-13.59,6h13.19l-12.13,3.73c-4.15,1.27-8.36,2.36-12.6,3.27h1.54c-2.06.27-4.27.53-6.63.8-2.06.53-4.27.93-6.62,1.2h45.09c-4.13.53-8.55.93-13.27,1.2-4.42.27-9.14.4-14.15.4-4.71,0-9.42-.13-14.14-.4-4.42-.27-8.69-.67-12.82-1.2h-45.53c-2.23-.3-4.45-.7-6.63-1.2-2.06-.27-4.27-.53-6.63-.8h.21c-9.33-1.87-17.57-4.2-24.74-7h-13.3c-4.8-1.6-9.21-3.6-13.2-6h-38.83c-2.11-1.21-4.3-2.3-6.53-3.27-1.87-1.24-3.73-2.49-5.6-3.73h30.04c-4.04-2.81-7.95-5.81-11.7-9h6.96l-4-4h14.64l-3.61-4h-9.11c-.8-.8-1.33-1.47-1.6-2h-4.44c-2.4-2.4-4.65-5.4-6.75-9h-22.88l-2.71-4.5c-.89-1.5-1.79-3-2.69-4.5h12.02c-.6-1.5-1.35-3-2.25-4.5-.87-1.44-1.62-2.94-2.24-4.5h9.39c-1.24-2.49-2.17-4.82-2.79-7h6.72l-2.69-9h10.1c-.23-.94-.5-1.88-.8-2.8-.26-1.07-.53-2.13-.8-3.2h4.36c-.31-1.5-.61-3-.9-4.5,0-1.5-.3-3-.9-4.5h-17.25l-.4-4h-5.73l-.88-7.65v-1.35h26.44c-.3-1.2-.44-2.25-.44-3.15v-3.85h-18.9l-.45-4h1.8c-.3-1.07-.45-2-.45-2.8v-4.2h-4.4l-.4-4h-1.03s-.16-3.27-.17-4.74v-4.26h-2.04c0-1.64-.96-4.59-.96-4.59v-4.41h3v-6h8v-7h-5v-7h-1v-6h-18.44c.29-1.24.44-2.33.44-3.27v-3.73h26v-9h3.52c.3-.53.44-1.2.44-2h33.04v-3h-24.41l.4-4h-12.68l.47-1.87c0-2.18.15-3.89.47-5.13h-5.29c.26-1.07.4-2,.4-2.8,0-1.07.13-2.13.4-3.2h1.4c.27-.53.4-1.2.4-2s.14-1.47.4-2h5.74c.32-1.24.62-2.33.94-3.27.32-1.24.62-2.49.94-3.73h-27.07c.62-1.24,1.09-2.33,1.39-3.27.32-1.24.63-2.49.94-3.73h6.5l2.81-7h-48.08l3.6-8h24.11l.8-2h20.77c1.21-3,2.85-6,4.96-9h-11.92l1.19-2h16.37c1.15-1.43,2.2-2.93,3.14-4.5,1.19-1.8,2.4-3.3,3.6-4.5h13.21s1.18-1.7,1.77-2.58c.89-.88,2.2-2.42,2.2-2.42h1.54c.8-.53,1.48-1.21,2-2,.8-.8,1.46-1.47,1.99-2h-1.77l8.39-7h.41l9.81-7h.77l7.19-4c.53-.53,1.07-.93,1.6-1.2.8-.27,1.6-.53,2.39-.8h-8.25s1.33-1.14,2.21-1.44c.87-.29,2.2-1.56,2.2-1.56h4.95c1.6-.8,3.21-1.47,4.8-2,1.71-.74,3.44-1.4,5.2-2h4.39c1.06-.53,1.99-.93,2.8-1.2l3.21-.8h-.57c1.47-.53,2.8-.93,3.98-1.2l4.42-.8h.89c6.87-1.35,13.81-2.42,20.79-3.2,7.36-.8,15.03-1.2,22.99-1.2,15.03,0,29.47,1.47,43.32,4.4h-.89l4.43.8c1.47.27,2.79.67,3.98,1.2h1.64c1.06.27,1.99.53,2.8.8,1.07.27,2.13.67,3.21,1.2h-2.24c1.86.53,3.6,1.2,5.2,2,1.86.53,3.6,1.2,5.2,2h-3.87l4.86,3h9.06l1.59.8c.8.27,1.6.67,2.4,1.2h.15l7.19,4h-.77c1.76,1.17,3.47,2.42,5.13,3.73,1.86.93,3.58,2.02,5.13,3.27h-1.36c1.47,1.17,2.87,2.41,4.2,3.73,1.32,1,2.57,2.09,3.74,3.27h1.77c.79.53,1.47,1.21,1.99,2,.8.8,1.47,1.47,2,2h-.93l3.6,4h-12.63s2.21,3.28,3.1,5.05c1.17,1.47,3.53,4.95,3.53,4.95h-16.29l1.2,2h12.4c.9,1.2,1.79,2.7,2.69,4.5l2.71,4.5h-20.77l1.2,2h-23.62l3.61,8h47.85l2.81,7h-7.2c.32,1.24.62,2.49.94,3.73.32.93.62,2.02.94,3.27h-3.62l1.39,7h20.79c.53,1.6.8,2.93.8,4h3.17c.27,1.07.4,2.13.4,3.2.27.8.4,1.73.4,2.8h1.95c.32,1.24.47,2.96.47,5.13,0,.93.16,1.56.47,1.87h26.6ZM1736.84,182.46c-4.72,0-8.99,1.18-12.82,3.54h25.65c-3.24-2.36-7.52-3.54-12.82-3.54h0ZM1809.44,214c0-1.33-.16-2.4-.44-3.2v-.8h-26.6c0-1.24-.15-2.33-.47-3.27,0-1.24-.15-2.49-.47-3.73h-1.38c-.23-.94-.5-1.88-.8-2.8,0-1.07-.27-2.13-.8-3.2h-3.17c-.3-1.07-1.04-2.4-2.21-4h-20.77c-.6-.8-1.18-1.6-1.77-2.4-.58-.79-1.34-1.47-2.21-2-1.43,1.29-2.62,2.77-3.53,4.4h-6.19c-.3.53-.59,1.2-.89,2-.3.53-.73,1.2-1.33,2h-1.4c-.27,1.07-.54,2.13-.8,3.2-.27.8-.54,1.73-.8,2.8h5.55c-.32,1.24-.62,2.49-.94,3.73v3.27h9v4h62.44ZM1793.59,219c0-.8-.16-1.47-.45-2h-52.14v2h-3.56c0,1.2-.14,2.7-.44,4.5v4.5h-26v7h18.45c0,1.24-.16,2.49-.45,3.73v2.27h1v7h5v7h-8v6h-2v9h2v9h1v4h5v7h-1v4h18.56c.29.8.44,1.73.44,2.8v4.2h-27.01l1.35,9h6.69l1.2,4h17.01c1.5,3.9,3.45,6.9,5.85,9h-4.5c3.9,3.9,9.14,5.85,15.75,5.85s12.3-1.95,16.2-5.85h-16.2c2.1-2.1,3.9-5.1,5.4-9h25.16l1.19-4h1.38l1.35-9h-11.84v-1.1c.19-.88.33-1.77,1-2.65v-3.25h-10v-4h-5v-7h-9v-4h23v-9h-23v-9h15v-6h1v-7h-4v-7h-19v-6h20v-7h2v-9h11.59Z" fill="#ff7474" fill-opacity=".9"/>

<path d="M1577,398v2h45.98c0,1.33-.44,2.67-1.33,4h-48.44l-4.42,5h20.34s-3.54,1.88-6.19,2h-254.65c-2.66-.12-6.19-2-6.19-2h-20.34s-1.77-1.07-2.65-1.66c-.6-.88-1.77-3.34-1.77-3.34h48.55c-.54-1.07-1.07-2.4-1.6-4h-46.3v-2h49v-7h-38v-2h-25v-7h52v-6h-48v-9h16v-4h13v-9h-7v-3.87c.3-1.56.62-3.27.92-5.13h22.87c.3-1.24.62-2.33.94-3.27.62-1.24,1.09-2.49,1.39-3.73h-29.79c.54-.53.94-1.2,1.2-2,.53-.8,1.07-1.47,1.6-2h1.57c1.57-1.89,3.32-3.64,5.21-5.21l5.21-3.79h.54-.15c1.03-.51,1.98-1.19,2.79-2,.8-.8,1.73-1.47,2.8-2h2.65c.54-.53,1.07-.93,1.6-1.2s.93-.53,1.2-.8h.34c1.48-1.19,3.04-2.28,4.66-3.27,1.87-1.24,3.43-2.49,4.66-3.73h-3.93c1.03-.51,1.98-1.19,2.79-2,.8-.8,1.73-1.47,2.8-2h1.37l9.8-7h4.05c2.01-1.42,3.96-2.92,5.85-4.5,2.11-1.8,4.2-3.3,6.3-4.5h-17.45c2-1.43,3.95-2.93,5.85-4.5,2.1-1.8,4.2-3.3,6.3-4.5h17.73c.53-.53,1.06-.93,1.6-1.2.53-.27.93-.53,1.19-.8h2.66c1.07-.53,2-1.2,2.81-2,.82-.81,1.76-1.49,2.8-2h-21.03c2.4-1.5,4.5-3,6.3-4.5,2.1-1.8,4.05-3.3,5.85-4.5h-2.19l2.4-2h16.48s1.17-1.61,1.76-1.9c.6-.29,1.33-1.1,1.33-1.1h-36.36l11.7-9h42.47l2.4-2h-32.82l8.4-7h19.49l4.8-4h-24.15c1.72-1.42,3.37-2.93,4.95-4.5,1.8-1.8,3.3-3.3,4.5-4.5h44.24c.53-.53.93-.93,1.19-1.2.27-.27.54-.53.8-.8h-12.06c.79-.53,1.48-1.21,2-2,.8-.8,1.46-1.47,2-2h-47.24c2.49-2.49,4.35-4.82,5.6-7h29.43l4.95-9h14.96c1.5-3.6,2.25-6.6,2.25-9h13.83v-2h11v-3.8c0-1.07-.16-2.13-.44-3.2h-15.48l-.87-2h-26.09l-1.33,2h10.62c-.63,1.24-1.25,2.49-1.87,3.73-.32.93-.78,2.02-1.4,3.27h-17.2l-.8,2h-8.84c-.3.6-.45,1.2-.45,1.8s-.16,1.2-.45,1.8c-.3,1.2-.76,2.25-1.35,3.15-.6.9-1.19,1.65-1.8,2.25h-32.52c-1.81,2.12-4.09,3.48-6.82,4.09-2.42.61-5.15.91-8.17.91h-85.45c-3.94,0-6.82-1.67-8.63-5h35.71c-.9-1.5-1.35-3.15-1.35-4.95v-4.05h9v-2h17v-3.8c.3-1.07.44-2.13.44-3.2h-10.09c0-.8.14-1.47.44-2h-15.79v-1.2c.29-.27.44-.53.44-.8h-33.61c.3-.53.44-1.2.44-2s.16-1.47.44-2h34.63l2.25-9h-6.17c0-.27.27-.93.8-2h-45.55c.3-1.24.77-2.33,1.39-3.27.32-1.24.63-2.49.94-3.73h67.94c.55-1.13,1.17-2.22,1.86-3.27.62-1.24,1.09-2.49,1.4-3.73h-49.21l2.71-4.5c.9-1.8,1.8-3.3,2.71-4.5h9.38c.53-.53,1.06-1.2,1.6-2,.53-.8.93-1.47,1.19-2h28.09c.79-.8,1.33-1.47,1.59-2h-25.38c.53-.53,1.06-1.2,1.59-2,.54-.8,1.07-1.47,1.6-2h22.71l2.21-3h-3.18c2.71-3.3,5.7-6.3,9.01-9h10.21l2.4-2h-20.98l2.4-2h15.15s2.21-1.37,3.1-2.26c1.01-.77,3.09-2.74,3.09-2.74h26.87l6.39-4h17.86c3.01-1.8,6.01-3.45,9.01-4.95,3.3-1.5,6.59-2.85,9.9-4.05h-43.21c.74-.51,1.55-.91,2.39-1.2,1.07-.27,2-.53,2.81-.8h-16.09c1.48-.53,2.66-.93,3.54-1.2l3.53-.8h78.7c15.03-4,31.38-6,49.07-6,20.34,0,38.47,2,54.38,6h-78.7c1.47.27,2.8.53,3.99.8,1.17.27,2.36.67,3.53,1.2h16.65c1.07.27,2,.53,2.81.8,1.06.27,1.99.67,2.8,1.2h43.46c3.6,1.2,6.9,2.55,9.9,4.05,3.24,1.47,6.39,3.12,9.45,4.95h-17.51c1.06.53,2.12,1.2,3.2,2,1,.76,2.07,1.43,3.2,2h-26.19l5.75,5h-15.34l2.39,2h21.91l2.4,2h-10.56c1.5,1.2,3,2.7,4.5,4.5,1.43,1.42,2.78,2.93,4.05,4.5h3.03s.59.81.89,1.1c.29.3.87,1.9.87,1.9h-22.4c.54.53.94,1.2,1.2,2,.53.8,1.07,1.47,1.6,2h25.85l1.2,2h-27.68c.8,1.33,1.46,2.67,2,4h-9.22l4.05,9h48.98c.6,1.19,1.07,2.44,1.4,3.73.3.93.62,2.02.94,3.27h-70.69c.63,1.24.94,2.49.94,3.73.32.93.62,2.02.94,3.27h48.06v.65c.3.3.45.75.45,1.35h6.3c.9,3,1.35,6,1.35,9h21.89l.4,4h-40.63c.27.53.4,1.2.4,2h26.83v2h15v7h-10c0,.8-.14,1.47-.4,2h-15.05c0,1.5-.15,3-.45,4.5,0,1.5-.15,3-.45,4.5h-15c-.3,1.5-.6,3-.9,4.5-.32,1.54-.77,3.04-1.35,4.5h-29.1c-.3,1.24-.62,2.49-.94,3.73-.3.93-.77,2.02-1.39,3.27h46.84l-1.6,4h12.23l-1.2,2h-44.23c-.63,1.56-1.39,3.06-2.25,4.5-.87,1.44-1.62,2.94-2.25,4.5h23.79c-.26.53-.66,1.2-1.2,2-.26.8-.66,1.47-1.19,2h-19.46l-4.66,7h32.33l-1.2,2h-42.43l-7.65,9h35.88s-.59.81-.89,1.1-.89,1.9-.89,1.9h-16.46l-2,2h2.64l-9.45,9h20.63c-.53.53-1.2,1.2-2,2-.79.8-1.59,1.47-2.39,2h-2.55l-1.99,2h-17.69l-10.81,9h17.44c-1.89,1.58-3.84,3.08-5.85,4.5-1.89,1.58-3.84,3.08-5.85,4.5h-3.61l-9.8,7h-1.37c-1.12.57-2.19,1.24-3.2,2-.8.8-1.6,1.47-2.4,2h3.94c-1.24.93-2.64,2.02-4.2,3.27l-4.66,2.8-.94.93h-.18l-1.77,1h93.28l4.42,1h-1.95c1.6.8,3.2,2.13,4.8,4h.27c1.19,1.5,1.8,3.75,1.8,6.75v2.25h-1v4h29v7h-22v9h7v9h-14v4h-16v9h48v7h-52v6h25v2h38v7h-48ZM1439.51,188h40.86c-1.17-1.87-2.95-3.2-5.3-4h-22.1c-1.77-.8-4.56-1.2-8.39-1.2-2.96,0-5.6.4-7.96,1.2h-34.93c-1.44.25-2.8.8-3.98,1.6-1.18.8-2.36,1.6-3.54,2.4h34.14c-.26.27-.53.53-.79.8-.27.27-.54.67-.8,1.2h13.6c0-.27-.26-.93-.8-2h0Z" fill="#ff7474" fill-opacity=".9"/>

<path d="M1337,199v2h-10.42c.28,1.47.42,2.95.42,4.42v4.58h-79.54c0,3.94-1.97,6.97-5.91,9.09-1.82.61-3.19.91-4.1.91h-91.48l-3.54-1h-71.43v2h38.44c-.3,1.5-.44,3-.44,4.5v4.5h-15.64s-.44,1.37-.36,2.26v1.74h1v5h-7v9h22v2h-72v4h23v9h46v2h-19v3h-12v9h33.57c.29,1.07.43,2.13.43,3.2v2.8h12v3h-56v4h-13v2h57v1h88.65c5.61,0,8.86,2.67,9.75,8h65.6v6h-3.16l-.9,9h-4.96l-.4,4h11.47l-.44,3h-2.67c-.27.53-.4,1.2-.4,2h15.79l-1.39,7h-14.47c0,.31-.15.62-.47.93v1.07h-3.73c-.33,1.29-.8,2.54-1.4,3.73-.32.93-.62,2.02-.94,3.27h5.22c0,.27-.26.93-.8,2h-9.09c-.56,1.39-1.23,2.72-2,4-.56,1.38-1.23,2.72-1.99,4h8.74l-4.2,7h4.21l-4.66,7h-2.46c-1.26,1.57-2.61,3.08-4.05,4.5-1.26,1.57-2.61,3.08-4.05,4.5h-3.58c-.26.27-.53.53-.8.8-.26.27-.66.67-1.19,1.2h-19.22l-2,2h88.86c-1.8,1.5-3.6,3-5.4,4.5-1.89,1.57-3.85,3.07-5.85,4.5h-4.47c-3.11,2.18-6.85,4.51-11.2,7h-92.82c-3.06,1.83-6.21,3.48-9.46,4.95-3.35,1.22-6.65,2.57-9.9,4.05h72.82c-.79.27-1.73.53-2.79.8-.8.27-1.73.67-2.8,1.2h-18.31l-3.21.8c-1.06.27-2.13.67-3.2,1.2h-32.17c-10.61,3.11-21.52,5.45-32.71,7h7.08c-4.72.62-9.58,1.09-14.6,1.4-5.01.31-10.02.47-15.03.47-5.6,0-11.05-.16-16.36-.47-5.02-.31-10.02-.78-15.04-1.4h-7.08c-11.78-1.55-22.69-3.89-32.71-7h31.52c-1.02-.52-2.1-.92-3.21-1.2-.8-.27-1.73-.53-2.8-.8h17.52l-5.6-2h-73.09c-3.07-1.53-6.22-2.88-9.45-4.05-3.06-1.53-6.07-3.19-9.01-4.95h94.17c-1.8-1.2-3.67-2.29-5.6-3.27-1.76-1.17-3.48-2.41-5.13-3.73h5.23c-3.66-2.75-7.11-5.76-10.35-9h-89.32c-.26-.53-.53-.93-.8-1.2-.26-.27-.66-.53-1.19-.8h19.24c-.25-.53-.68-.95-1.2-1.2-.26-.27-.53-.53-.79-.8h3.49c-2.71-3-5.25-6-7.65-9h2.84l-4.2-7h-3.77l-4.2-7h-8.92l-3.6-8h9.06l-.8-2h-5.73c-.27-1.1-.58-2.19-.93-3.27-.33-1.29-.8-2.54-1.4-3.73h3.56l-.8-2h13.71c-.26-1.1-.58-2.19-.94-3.27-.3-1.24-.62-2.49-.92-3.73h-7.05c-.27-.53-.4-1.2-.4-2h-7.54l-.44-3h.4c0-1.07-.27-2.4-.8-4h-25.31l-1.2-8h34c-.31-1.24-.47-2.33-.47-3.27,0-1.24-.16-2.49-.47-3.73h8.66v-2.87c-.24-.9-.38-1.8,0-2.65v-3.48h-58v-2h13v-5h57v-2h-12.56c0-1.24-.15-2.33-.44-3.27v-3.73h-34v-8h12v-2h19v-3h-46v-9h-23v-4h72v-2h-22v-9h7v-4h-1v-5h16v-9h-38v-2h85v-2.22c-.41-1.18,0-3.1,0-3.1v-3.69h-23v-5c.26-1.33.53-2.67.8-4h12.8c.27-.53.4-1.2.4-2h-90.68c.27-.53.4-1.2.4-2s.13-1.47.4-2h80.49l2.25-9h-18.08l1.19-4h-29.55l.88-3h9.81c.26-.53.53-1.2.8-2,.26-.8.53-1.47.79-2h-4.69l1.6-4h2.21c.55-1.13,1.17-2.22,1.86-3.27.62-1.24,1.09-2.49,1.4-3.73h.25l4.2-7h-1.23c.48-.96,1.02-1.9,1.6-2.8l2.4-3.2h-3.4c1.21-1.5,2.4-3,3.61-4.5,1.19-1.8,2.4-3.3,3.6-4.5h-3.95c.26-.53.53-.93.8-1.2.26-.27.53-.53.79-.8h-4.33l2.21-3h-.78c.53-.53.93-.93,1.2-1.2.26-.27.53-.53.8-.8h-7.62c.53-.53,1.2-1.2,2-2,.79-.8,1.59-1.47,2.39-2h10.59c1.48-1.19,3.04-2.29,4.68-3.27l4.66-3.73h-4.94l3.2-2h-7.18c.54-.53,1.07-.93,1.6-1.2.53-.27,1.06-.53,1.6-.8h22.81c2.11-1.21,4.29-2.31,6.53-3.27,2.17-1.24,4.35-2.49,6.53-3.73h-1.17c1.55-.78,3.15-1.45,4.8-2,1.55-.78,3.15-1.45,4.8-2h8.91s1.71-1.54,2.65-1.86c1.18-.3,3.54-1.14,3.54-1.14h-13.27c8.84-3.42,18.27-5.76,28.29-7h11.94c11.49-1.87,23.58-2.8,36.26-2.8s24.31.93,35.8,2.8h-11.49c9.73,1.24,19.46,3.58,29.18,7h13.27s2.21.85,3.1,1.14c1.17.29,3.53,1.86,3.53,1.86h-7.88c4.01,1.33,7.33,2.67,10,4h1.5c2.37,1.18,4.7,2.42,7,3.73,2.17.93,4.36,2.02,6.53,3.27h-22.73c.53.27,1.06.53,1.6.8.53.27,1.06.67,1.59,1.2h7.83c.53.27,1.06.53,1.6.8.53.27.93.67,1.19,1.2h4.77l9.33,7h-11.04l4.8,4h8.34l2.39,2h.57l2.21,3h4.52l2,2h4.02c1.19,1.2,2.4,2.7,3.6,4.5,1.21,1.5,2.4,3,3.61,4.5h3.24c.76,1,1.43,2.08,2,3.2.8.8,1.46,1.73,1.99,2.8h1.44c.62,1.24,1.25,2.49,1.87,3.73.62.93,1.24,2.02,1.87,3.27h-1.07c.62,1.24,1.24,2.49,1.87,3.73.62.93,1.09,2.02,1.39,3.27h-2.23l1.19,4h3.8l1.19,4h-8.8v1.8c.27.27.4.67.4,1.2h26.8c0,1.07.26,2.4.8,4h-36.96l1.34,9h25.68l.44,4h53.5ZM1134.03,186h31.38c-4.72-1.77-10.02-2.65-15.91-2.65s-11.05.88-15.47,2.65ZM1211.19,206.85c-.26-1.06-.55-2.11-.89-3.15-.3-.9-.76-1.8-1.35-2.7h9.9l-1.2-2h-53.12c-.29-.8-.73-1.47-1.32-2-.6-.8-1.18-1.47-1.77-2h-100.36c-.29.53-.73,1.2-1.33,2-.29.53-.73,1.2-1.32,2h91.47l-.8,2h-14.85c-.61,1.2-1.06,2.7-1.35,4.5-.3,1.5-.6,3-.9,4.5h80.54l-1.35-3.15h0ZM1158.34,301h-56.59l1.33,7h-33.85c.49,1.48,1.02,2.95,1.6,4.4.62,1.23,1.28,2.43,1.99,3.6h25.56c.53.8,1.06,1.6,1.6,2.4l1.59,1.6h-.72l2.21,3h7.52c.59.27,1.17.67,1.76,1.2.6.27,1.18.53,1.77.8h7.08c5.01,2.4,11.05,3.6,18.13,3.6s12.97-1.2,17.68-3.6h-14.6l3.54-2h2.65l2.66-3h-11.33l1.59-1.6c.8-.8,1.33-1.6,1.6-2.4h5.24c1.6-2.4,2.94-5.07,4-8h3.31l.89-2.33c.59-1.87,1.17-3.42,1.76-4.67h0Z" fill="#ff7474" fill-opacity=".9"/>

<path d="M952.46,234h-21.64l-.93,3.73c-.31.93-.78,2.02-1.4,3.27h12.38l-1.2,4h-10.64c-.9,2.7-2.1,5.7-3.6,9h-6.56c-1.2,3-2.85,6-4.95,9h.98c-1.15,1.43-2.2,2.93-3.15,4.5-.95,1.57-2,3.07-3.15,4.5h47.96l-6.07,7h-39.63c-1.07,1.33-2.4,2.67-4,4-1.53,1.27-2.99,2.6-4.4,4h5.55c-1.24,1.24-2.8,2.49-4.67,3.73-1.63.98-3.19,2.08-4.67,3.27h14.83l-1.8,1.35,4.05,7.65h-10.69l4.95,9h1.35l1.2,2h-.42l4.5,9h4.51l2.4,4h-34.01l3.73,7h30.97l2.4,4h-9.7l3.73,7h43.63l4.95,9h-29.32l3.73,7h-13.73l6.93,13h3.29l2.4,4h-1.14l1.2,2h-20.7l4.84,8.8.88,2.2h-13.7l2.25,4.95c.89,1.16,1.36,2.59,1.35,4.05h9.45v1.14s-1.55,5.89-4.2,7.86h11.94c-1.47,1.28-3.39,1.87-5.75,2h-90.63c-1.77-.13-3.39-.28-4.86-.58-1.18-.59-3.98-1.42-3.98-1.42h-11.85c-2.4-1.2-4.5-2.7-6.3-4.5-1.5-1.8-2.7-3.3-3.6-4.5h-8.72l-.9-1.35-3.15-7.65h15.2l-1.35-2h-42.84v2h-23v9h36.45c-.6,4.2-2.55,7.2-5.85,9h-3.32s-4.3,1.87-6.63,2h-86.65c-2.65-.13-6.19-2-6.19-2h3.54s-5.16-4.62-5.75-9h-35.59v-.19c-.07-.29,1-.88,1-.88v-7.93h21v-2h44v-9h-47v-2h28v-4h-9v-7h15v-7h-25v-6h34v-9h-20v-7h0v-2h-3v-2h-11v-7h15v-4h-4v-9h0v-2h-1v-9h11v-9h-15v-7h-6v-8h39v-7h-48v-9h-1v-9h7v-9h10v-4h-12v-7h21v-4h32v-4h-44v-3h2v-2h4v-2h0v-4h0v-7h1v-9h-2v-4h2v-7h-1v-2h0v-5h1v-2h-2v-2h4v-6h4v-7h-21v-9h5v-9h-3v-6h12v-7h4v-7h-8v-4h3v-2h1v-7h.9c0-3.3,1.35-6.3,4.05-9h24.03s4.27-2.61,7.52-3h130.86c12.67.39,35.37,3,35.37,3h-23.73c12,1.8,23.4,4.8,34.2,9h-1.59c5.33,1.88,10.48,4.23,15.4,7h-1.1l3.6,2h-3.01c1.33.53,2.4,1.2,3.2,2,1,.76,2.08,1.43,3.2,2h8.06l4.67,3.73c1.53.91,2.94,2.01,4.2,3.27h-4.85c1.56,1.24,2.8,2.49,3.73,3.73,1.32,1,2.57,2.09,3.73,3.27h-11.86c1.01,1,1.94,2.07,2.8,3.2.8.8,1.6,1.73,2.4,2.8h2.43c2.4,3,4.5,6,6.3,9h-4.52c.9,1.2,1.65,2.7,2.25,4.5l2.7,4.5h20.66l2.8,7h-3.51l.8,3.2c.53.8.93,1.73,1.2,2.8h-4.27l.8,2h1.76c.31.62.47,1.4.47,2.33l1.4,4.67h1.3c0,.8.13,1.47.4,2h.44c.31,1.24.47,2.49.47,3.73.31.93.47,2.02.47,3.27h-6.12v2c0,.8.13,1.47.4,2h3.6v4.52c-.26,1.46,0,4.42,0,4.42v4.06h3v3h-3v4h-4.56c0,.27-.15.53-.44.8v1.2h4.45c0,.27-.15.53-.45.8v2.2h18.8c-.27.53-.4,1.2-.4,2h7.66l-.4,4h-20.4c-.53,1.6-.8,2.93-.8,4h0ZM775,226h44v4h-32v1h32.79c2.06-.51,4.86-1,4.86-1h20.76c2.91-.79,5.63-2.15,8-4h-5.66l2-2h-20.67l1.77-3h-4.36l1.2-2h4.48l1.33-5h2.23c.27-.53.4-1.2.4-2h-2.64l.43-4.33c0-2.89-.43-5.78-1.3-8.67h-2.75c-.27-.53-.53-1.2-.8-2,0-.8-.27-1.47-.8-2h6.24c-1.24-2.49-2.95-4.82-5.13-7h-.9c-.82-.81-1.76-1.49-2.8-2h-1.13c-2.95-1.33-6.04-2-9.28-2h-32.27v2h-2v2h2v7h-2v4h2v9h-2v7h0v4h1v2h-4v3h-3v2h0ZM810.45,327l-1.78-4h-6.03l-3.37-8h-17.26v8h4v4h24.45,0ZM771,327v7h8.87l-2.8-7h-6.07ZM811.41,336l-.8-2h-27.61v2h2v2h1v7h20v9h-34v6h25v7h-16v7h9v4h-27v2h60.43l-1.28-2h2.85l-2-4h-3.7l-2.6-6.5-3.03-6.5h14.18l-3.27-7h28.86l-4.05-9h-43.66l-2.8-7h9.7l-1.2-2h0Z" fill="#ff7474" fill-opacity=".9"/>

<path d="M655.33,334h34.67v6h-67v9h43v9h-38v9h5v7h-3v4h-9v5h0v4h9v9h13v2.8c0,.53-.15.93-.44,1.2h-78.69c-.29.53-.44,1.2-.44,2h30.15c-.93,3.11-2.64,5.44-5.13,7h-8.27s-3.54,1.87-6.19,2h-230.34c-2.33-.13-6.63-2-6.63-2h8.53c-2.18-1.56-3.89-3.89-5.13-7h-31.11c-.29-.53-.44-1.2-.44-2h79.14v-4h-13v-9h-9v-4h0v-5h10v-4h3v-7h-5v-9h38v-9h-43v-9h67v-6h-35v-5h10v-4h4v-5h-48v-4h-12v-7h41v-2h-33v-4h10v-4h7v-7h-1v-9h-4v-9h-6v-4h5v-9h-5v-4h7v-7h2v-7h8v-2h-8v-9h-7v-7h2v-6h1v-9h7v-9h-10v-9h2v-8h12v-7h-7v-7h-4v-2h19v-7h33v-4h-13v-4h-43v-2h4v-7h1v-7h1v-9h0v-11h-1v-3.43c0-1.14.15-2,.44-2.57h-4.42c1.18-6,5.01-9,11.49-9h226.8c6.78,0,10.61,3,11.49,9h4.46s.44,1.15.73,2.33v3.67h0v11h1v9h-2v7h0v7h-5v2h43v4h13v4h-32v7h-19v2h4v7h7c-.62,3.11-1.71,5.44-3.27,7h-12.51c-2.07,2.67-5.04,4-8.89,4h-133.34v4h-1v9h10v9h-7v5h123.16c3.24.46,8.4,4,8.4,4h-1.43c1.56,1.55,2.64,3.89,3.27,7h-1.4v6h7v9h8v2h-8v7h-2v7h-7v4h5v9h-5v4h6v9h4v1.73c0,3.33-.74,5.76-2.21,7.27h.88c-2.36,3.33-5.6,5-9.73,5h-122.94v2h-7v4h-9v4h33v2h-42v7h12v4h49v4h135.98c1.47.66,3.54,1,3.54,1h-4.55c2.67.8,4.67,2.13,6,4h-9.85s1.92,3.76,2.21,4.94v.06Z" fill="#ff7474" fill-opacity=".9"/>

<path d="M357.42,345h24.58v9h-23v9h-8v2h1v2h-14v7h5v9h4v2h-56v4h3v9h57v1.8c0,2.4-.93,4.8-2.8,7.2h10.8c-1.07,1.07-1.87,1.73-2.4,2h-12.44s-3.54,1.89-6.19,2h-207.79c-2.95-.11-6.63-2-6.63-2h11.05c-.53-.27-1.33-.93-2.4-2h-10.4c-1.87-2.4-2.8-4.8-2.8-7.2v-1.8h-57v-9h-2v-4h56v-2h-4v-9h-5v-7h14v-2h-1v-2h8v-9h23v-5.89s.11-2.5.4-3.11h-25.64l1.33-5h-12.76l1.2-2h-32.57c.27-.53.8-1.2,1.6-2h29.52c1.24-1.87,2.33-3.11,3.27-3.73l3.73-3.27h-32.96l7.2-6h86.82l4.4-4h-29.39l2.21-3h6.86l7.93-7h-39.77l4.4-4h-3.18l2.4-2h5.56l2.4-2h4.77l8.4-7h2.34l10.35-9h-2.7l9.2-8h1.27l10.8-9h-.98l5.31-5h-.77l7.29-6h-79.91l-7.52-3h-3.64c-.79-.53-1.47-1.21-2-2h8.21c-.53-1.07-1.07-2.4-1.6-4h-2.76c-.27-.53-.4-1.2-.4-2h-7.63v-9h-6v-3h1v-2h6v-2h10v-5h-5v-4h1v-13h2v-7h-2v-2h-1v-2h17v-4.19c0-1.46.3-3.06.89-4.81h-23.06c2.07-4.67,5.77-7,11.09-7h196.05c4.73,0,8.43,2.33,11.09,7h22.62c.89,1.17,1.33,2.77,1.33,4.81v4.19h-17v2h1v2h2v7h-2v13h-2v4h5v5h-10v2h-5v2h-2v3h6v9h8v2h3v.8c0,1.33-.13,2.4-.4,3.2h-7.6c0,.27-.27.93-.8,2h2.22c-.6,2.1-2.25,4.5-4.95,7.2l-2.25,1.8h.27l-4.4,4h.74l-10.35,9h-.7l-10.35,9h3.28l-10.35,9h-2.35l-7.93,7h-5.2l-2,2h-5.54l-2.4,2h3.18l-4.4,4h39.77l-7.93,7h-6.87l-2.21,3h29.39l-4.4,4h-86.23l-7.93,7h33.19l-5.83,5h87.36l5.31,1h-29.47c.8.27,1.73.93,2.8,2h32.93l1.2,2h12.88s1.18,3.25,1.77,5.01h0Z" fill="#ff7474" fill-opacity=".9"/>

<!-- layer c -->
<path d="M1945,199v4h-48v1.8c.29.27.45.67.45,1.2h31.55v2h-11.74s.44,2.54.74,4.31v4.69h-1v6h-21v7h19v7h5v6h-2v7h-15v9h23v9h-23.02l-.45,4h9.48v4.2c0,.8-.15,1.73-.46,2.8h5.91c-.31.53-.46,1.2-.46,2v2h9v7h11v2.2c-.27,1.07-.4,2.13-.4,3.2s-.14,2.27-.4,3.6h-1.2l-.4,4h-24.84c-.29,1.5-.6,3-.89,4.5,0,1.5-.3,3-.9,4.5h15.97l-1.4,7h-10.7l-2.39,8h-7.13l-2.81,7h-8.72c-.63,1.56-1.38,3.06-2.25,4.5-.6,1.5-1.35,3-2.24,4.5h-12.15l-2.4,4-2.4,4h22.36c-1.21,1.5-2.4,3-3.61,4.5-.95,1.57-2,3.07-3.14,4.5h4.48l-2.21,3h8.66l-3.6,4h-15.88l-4,4h-7.18c-3.75,3.19-7.66,6.19-11.7,9h-29.21l-11.66,7h38.06c-4.54,2.4-9.07,4.4-13.61,6h13.2l-12.13,3.73c-4.15,1.27-8.35,2.36-12.6,3.27h1.54c-2.07.27-4.27.53-6.63.8-2.06.53-4.27.93-6.63,1.2h45.09c-4.12.53-8.55.93-13.26,1.2-4.43.27-9.15.4-14.15.4-4.72,0-9.43-.13-14.15-.4-4.42-.27-8.69-.67-12.81-1.2h-45.55c-2.23-.3-4.44-.7-6.62-1.2-2.07-.27-4.27-.53-6.63-.8h.21c-9.34-1.87-17.58-4.2-24.73-7h-13.31c-4.8-1.6-9.2-3.6-13.2-6h-38.84c-2.11-1.21-4.29-2.31-6.53-3.27-1.86-1.24-3.73-2.49-5.6-3.73h30.04c-4.04-2.81-7.95-5.81-11.7-9h6.97l-4-4h14.63l-3.6-4h-9.12c-.8-.8-1.33-1.47-1.59-2h-4.45c-2.4-2.4-4.64-5.4-6.74-9h-22.89c-.89-1.5-1.79-3-2.69-4.5l-2.71-4.5h12.02c-.62-1.56-1.37-3.06-2.24-4.5-.87-1.44-1.63-2.94-2.25-4.5h9.4c-1.25-2.49-2.19-4.82-2.81-7h6.58l-2.4-8h10.1c-.28-1.1-.59-2.19-.94-3.27-.32-1.24-.63-2.49-.94-3.73h4.48c-.3-1.5-.6-3-.9-4.5,0-1.5-.29-3-.9-4.5h-17.25l-.4-4h-6.52l-.91-7.65v-1.35h27.46c-.31-1.2-.46-2.25-.46-3.15v-3.85h-18.9l-.45-4h1.8c-.29-1.07-.45-2-.45-2.8v-4.2h-4.4l-.4-4h-1.8c0-1.5-.13-3-.4-4.5v-4.5h-1.6c0-1.5-.14-3-.4-4.5v-4.5h3v-7h8v-7h-6v-6h-1v-6h-17.44c.3-1.24.44-2.33.44-3.27v-3.73h26v-9h3.52c.3-.53.44-1.2.44-2h33.04v-3h-24.4l.4-4h-12.81l.4-1.6c0-1.87.14-3.33.4-4.4h-5.29c.32-1.24.47-2.33.47-3.27,0-1.24.15-2.49.47-3.73h1.35c.26-.53.4-1.2.4-2s.13-1.47.4-2h5.74c.3-1.24.62-2.33.94-3.27.3-1.24.62-2.49.92-3.73h-27.07c.62-1.24,1.09-2.33,1.4-3.27.3-1.24.62-2.49.94-3.73h6.69l2.4-6h-48.1l4.06-9h23.88l.79-2h20.83l4.86-10h-11.87l1.2-2h16.36c1.19-1.5,2.25-3,3.14-4.5,1.21-1.8,2.4-3.3,3.61-4.5h13.4c.53-.53,1.06-1.2,1.59-2,.8-.8,1.47-1.47,2-2h1.73c.79-.53,1.47-1.21,1.99-2,.8-.8,1.47-1.47,2-2h-1.78l8.41-7h1.11l8.4-6h.54l8.4-4.67c.62-.62,1.24-1.09,1.86-1.4l2.81-.93h-9.19s1.33-1.25,2.21-1.55,2.21-1.45,2.21-1.45h4.94c1.55-.78,3.15-1.45,4.8-2,1.7-.74,3.44-1.41,5.2-2h4.37c1.07-.53,2-.93,2.81-1.2l3.2-.8h-.57c1.47-.53,2.8-.93,3.99-1.2l4.42-.8h.89c6.87-1.35,13.8-2.41,20.77-3.2,7.38-.8,15.04-1.2,22.99-1.2,15.04,0,29.48,1.47,43.33,4.4h-.89l4.42.8c1.47.27,2.8.67,3.98,1.2h1.64c1.07.27,2,.53,2.81.8,1.06.27,2.13.67,3.2,1.2h-2.23c1.86.53,3.6,1.2,5.2,2,1.86.53,3.6,1.2,5.2,2h-3.88l4.87,3h9.05c.53.27,1.06.53,1.6.8.8.27,1.59.67,2.39,1.2h.15l7.2,4h-.78c1.87,1.24,3.58,2.49,5.13,3.73,1.87.93,3.58,2.02,5.13,3.27h-1.35c1.47,1.17,2.87,2.41,4.2,3.73,1.24.93,2.49,2.02,3.73,3.27h1.77c.8.53,1.46,1.2,2,2,.79.8,1.46,1.47,1.99,2h-.93l3.61,4h-12.69c1.19,1.2,2.25,2.7,3.14,4.5,1.21,1.5,2.4,3,3.61,4.5h-16.35l1.19,2h12.4c.9,1.2,1.8,2.7,2.71,4.5.9,1.5,1.8,3,2.69,4.5h-20.82l1.33,3h-23.91l4.05,9h47.84l2.39,6h-6.99c.3,1.24.62,2.49.94,3.73.3.93.62,2.02.92,3.27h-3.62l1.4,7h20.78c.53,1.6.8,2.93.8,4h3.11c.32,1.24.47,2.49.47,3.73.32.93.47,2.02.47,3.27h5.01c.26,1.07.4,2.53.4,4.4,0,.8.13,1.33.4,1.6,0,0,22.79,0,22.79,0ZM1757.67,171.46c-4.72,0-8.99,1.18-12.82,3.54h25.64c-3.23-2.36-7.51-3.54-12.81-3.54h0ZM1830.44,203c0-1.33-.14-2.4-.44-3.2v-.8h-22.79c0-1.07-.14-2-.4-2.8,0-1.07-.14-2.13-.4-3.2h-5.37c-.26-1.1-.58-2.19-.94-3.27,0-1.24-.3-2.49-.92-3.73h-3.05c-.3-1.07-1.03-2.4-2.21-4h-20.77c-.59-.8-1.17-1.6-1.77-2.4-.58-.79-1.33-1.47-2.2-2-1.47,1.33-2.66,2.8-3.54,4.4h-6.19c-.29.53-.59,1.2-.87,2-.3.53-.74,1.2-1.33,2h-1.28c-.32,1.24-.62,2.49-.94,3.73-.3.93-.62,2.02-.94,3.27h5.72c-.26,1.07-.53,2.13-.79,3.2v2.8h9v4h62.44ZM1813.59,208c0-.8-.15-1.47-.45-2h-52.14v2h-2.89c0,1.06-.16,2.54-.11,4.31v4.69h-27v7h18.45c0,1.24-.15,2.49-.45,3.73v2.27h2v6h5v7h-7v7h-3v9h2v9h1v4h5v7h-1v4h18.56c.3.8.44,1.73.44,2.8v4.2h-27l1.35,9h6.51l1.19,4h17.01c1.5,3.9,3.45,6.9,5.85,9h-4.5c3.9,3.9,9.15,5.85,15.75,5.85s12.31-1.95,16.21-5.85h-16.21c2.11-2.1,3.9-5.1,5.41-9h25.15l1.2-4h1.38l1.34-9h-12.66v-1.21c1.01-.88,1.15-1.77,1-2.65v-3.14h-9v-4h-5v-7h-9v-4h23v-9h-23v-9h15v-7h1v-7h-4v-6h-19v-6h20v-7h1v-9h11.59Z" fill-opacity=".4"/>

<path d="M1598,387v2h45.98c0,1.33-.43,2.67-1.32,4h-48.63l-4.42,5h20.33s-3.53,1.77-6.19,2h-254.65c-2.65-.23-6.19-2-6.19-2h-20.33l-2.66-1.77-1.76-3.23h48.54c-.53-1.07-1.06-2.4-1.6-4h-46.1v-2h48v-7h-38v-2h-25v-6h53v-7h-48v-9h16v-4h13v-9h-7v-3.87c.32-1.56.63-3.27.94-5.13h22.87c.32-1.24.63-2.33.94-3.27.62-1.24,1.09-2.49,1.4-3.73h-29.99c.53-.53.93-1.2,1.2-2,.53-.8,1.06-1.47,1.6-2h2.14c1.4-1.68,2.95-3.23,4.63-4.63l4.64-3.37h.66l.44-1h-.44s2.21-1.32,3.1-2.21c.89-.88,3.09-2.79,3.09-2.79h2.36c.53-.53,1.06-.93,1.6-1.2.53-.27.93-.53,1.19-.8h1.01c1.27-1.02,2.61-1.96,4.01-2.8,1.59-1.07,2.93-2.13,4-3.2h-3.26c1.03-.51,1.98-1.19,2.8-2,.8-.8,1.73-1.47,2.8-2h1.36l9.81-7h4.05c2-1.43,3.95-2.93,5.85-4.5,2.1-1.8,4.2-3.3,6.3-4.5h-17.45c2-1.43,3.95-2.93,5.85-4.5,2.1-1.8,4.19-3.3,6.3-4.5h17.73c.53-.53,1.06-.93,1.59-1.2.54-.27.94-.53,1.2-.8h2.66c1.03-.51,1.98-1.19,2.79-2,.8-.8,1.73-1.47,2.8-2h-20.93s4.43-3.58,6.19-5.05c2.07-1.77,5.75-4.95,5.75-4.95h-2.08l2.39-2h16.63c.54-.53,1.07-.93,1.6-1.2.53-.27.93-.53,1.2-.8h-36.21l11.7-9h42.47l2.39-2h-32.81l8.41-7h19.48l4.8-4h-24.14c1.72-1.43,3.37-2.93,4.95-4.5,1.79-1.8,3.3-3.3,4.5-4.5h44.23c.54-.53.94-.93,1.2-1.2.27-.27.53-.53.8-.8h-12.06c.8-.53,1.48-1.21,2-2,.8-.8,1.46-1.47,1.99-2h-47.23c2.48-2.49,4.35-4.82,5.6-7h29.42l4.96-9h14.96c1.5-3.6,2.25-6.6,2.25-9h14.01v-2h11v-3.8c0-1.07-.14-2.13-.44-3.2h-15.47l-.89-2h-26.08l-1.33,2h10.42l-1.86,3.73c-.32.93-.78,2.02-1.4,3.27h-17.2l-.8,2h-8.85c-.29.6-.45,1.2-.45,1.8s-.15,1.2-.44,1.8c-.3,1.2-.76,2.25-1.35,3.15-.6.9-1.21,1.65-1.8,2.25h-34c-1.77,2.12-3.98,3.49-6.63,4.09-2.36.61-5.01.91-7.96.91h-83.11c-3.83,0-6.63-1.67-8.4-5h34.4c-.89-1.5-1.34-3.15-1.34-4.95v-4.05h9v-2h17v-3.8c.3-1.07.44-2.13.44-3.2h-10.08c0-.8.14-1.47.44-2h-15.8v-1.2c.3-.27.44-.53.44-.8h-33.6c.3-.53.44-1.2.44-2s.14-1.47.44-2h34.44l2.25-9h-6.17c0-.27.26-.93.8-2h-45.57c.32-1.24.78-2.33,1.4-3.27.32-1.24.62-2.49.94-3.73h67.93c.56-1.13,1.18-2.22,1.87-3.27.6-1.19,1.07-2.44,1.4-3.73h-49.21l2.71-4.5c.9-1.8,1.79-3.3,2.69-4.5h9.39c.53-.53,1.06-1.2,1.59-2,.54-.8.94-1.47,1.2-2h28.08c.8-.8,1.33-1.47,1.6-2h-25.39c.54-.53,1.07-1.2,1.6-2s1.07-1.47,1.6-2h22.71l2.21-3h-3.18c2.71-3.3,5.7-6.3,9.01-9h10.21l2.39-2h-20.96l2.4-2h15.45c1.06-.53,2-1.2,2.8-2,.92-.69,1.85-1.36,2.81-2h26.82l7.08-5h17.52c2.94-1.77,5.94-3.42,9.01-4.95,3.29-1.5,6.59-2.85,9.9-4.05h-43.22c.8-.53,1.6-.93,2.4-1.2,1.06-.27,1.99-.53,2.8-.8h-16.08c1.47-.53,2.66-.93,3.54-1.2,1.17-.27,2.35-.53,3.53-.8h78.69c15.04-4,31.39-6,49.08-6,20.33,0,38.46,2,54.38,6h-78.7c1.47.27,2.8.53,3.98.8,1.18.27,2.36.67,3.54,1.2h16.65c1.06.27,2,.53,2.8.8,1.07.27,2,.67,2.81,1.2h43.45c3.61,1.2,6.91,2.55,9.91,4.05,3.24,1.47,6.39,3.12,9.45,4.95h-17.85s2.43,1.37,3.54,2.21c1.17.88,3.53,2.79,3.53,2.79h-26.25l5.2,4h-15.08l2.4,2h21.91l2.4,2h-10.57c1.51,1.2,3.01,2.7,4.51,4.5,1.43,1.42,2.78,2.93,4.05,4.5h3.01s.6.7.89.99c.3.29.89,2.01.89,2.01h-22.4c.53.53.93,1.2,1.2,2,.53.8,1.06,1.47,1.59,2h25.86l1.2,2h-27.68c.77,1.28,1.44,2.61,1.99,4h-9.21l4.05,9h48.98c.62,1.24,1.09,2.49,1.39,3.73.32.93.63,2.02.94,3.27h-70.5c.62,1.24.94,2.49.94,3.73.32.93.62,2.02.94,3.27h48.06v.65c.3.3.45.75.45,1.35h6.3c.9,3,1.35,6,1.35,9h21.71l.4,4h-40.63c.26.53.4,1.2.4,2h27.02v2h15v7h-10c0,.8-.13,1.47-.4,2h-15.23c0,1.5-.16,3-.45,4.5,0,1.5-.15,3-.45,4.5h-15c-.3,1.5-.61,3-.9,4.5-.32,1.54-.77,3.04-1.35,4.5h-29.1c-.32,1.24-.62,2.49-.94,3.73-.39,1.12-.86,2.21-1.4,3.27h46.84l-1.59,4h12.22l-1.19,2h-44.24c-.6,1.5-1.35,3-2.24,4.5-.87,1.44-1.63,2.94-2.25,4.5h23.79c-.27.53-.67,1.2-1.2,2-.26.8-.66,1.47-1.2,2h-19.45l-4.68,7h32.34l-1.2,2h-42.44l-7.64,9h35.79c-.27.27-.54.53-.8.8-.27.27-.53.67-.8,1.2h-16.55l-2,2h2.64l-9.46,9h20.87s-1.33,1.7-2.21,2.58c-.89.88-2.66,2.42-2.66,2.42h-2.31l-2,2h-17.7l-10.8,9h17.44c-1.89,1.57-3.85,3.07-5.85,4.5-1.89,1.57-3.85,3.07-5.85,4.5h-3.61l-9.81,7h-1.35c-1.13.57-2.2,1.24-3.21,2-.8.8-1.59,1.47-2.39,2h3.94c-1.24.93-2.64,2.02-4.2,3.27-1.55.93-3.11,1.87-4.68,2.8l-.92.93h-.19l-1.77,1h93.28l4.42,1h-1.95c1.59.8,3.2,2.13,4.8,4h.47c1.19,1.5,1.79,3.75,1.79,6.75v2.25h-1v4h29v7h-22v9h6v9h-13v4h-16v9h48v7h-52v6h25v2h38v7h-48ZM1460.33,177h40.86c-1.17-1.87-2.95-3.2-5.3-4h-22.1c-1.77-.8-4.57-1.2-8.4-1.2-2.95,0-5.6.4-7.95,1.2h-34.93c-1.44.26-2.81.8-3.99,1.6-1.17.8-2.36,1.6-3.53,2.4h34.14c-.27.27-.53.53-.8.8-.26.27-.53.67-.8,1.2h13.61c0-.27-.27-.93-.8-2h0Z" fill-opacity=".4"/>

<path d="M1358,188v2h-10.44c.29,1.47.44,2.95.44,4.42v4.58h-79.55c0,3.94-1.97,6.97-5.91,9.09-1.81.61-3.18.91-4.09.91h-91.66l-3.53-1h-72.26v2h38.44c-.28,1.5-.44,3-.44,4.5v4.5h-14.82s-.44,1.26-.18,2.15v1.85h1v5h-7v9h22v2h-72v4h23v9h45v2h-19v2h-11v9h33.57c.29,1.24.43,2.49.43,3.73v3.27h12v2h-57v4h-12v3h145.65c5.62,0,8.87,2.67,9.75,8h65.6v7h-3.14l-.9,9h-5.14l-.4,4h11.47l-.44,3h-2.68c-.26.53-.4,1.2-.4,2h14.97l-1.4,7h-14.46c0,.31-.16.62-.47.93v1.07h-3.74c-.3,1.24-.77,2.49-1.4,3.73-.3.93-.62,2.02-.92,3.27h6.05c0,.27-.27.93-.8,2h-9.1c-.55,1.39-1.22,2.72-1.99,4-.56,1.38-1.23,2.72-2,4h8.75l-4.21,7h4.22l-4.68,7h-2.45c-1.27,1.57-2.62,3.08-4.06,4.5-1.26,1.57-2.61,3.08-4.05,4.5h-3.57c-.27.27-.53.53-.8.8s-.67.67-1.2,1.2h-19.22l-1.99,2h88.86l-5.41,4.5c-1.89,1.58-3.84,3.08-5.85,4.5h-5.27c-2.67,1.87-5.86,3.87-9.6,6h-93.62c-3.05,1.83-6.2,3.48-9.45,4.95-3.35,1.22-6.66,2.57-9.91,4.05h72.83c-.8.27-1.73.53-2.81.8-.79.27-1.73.67-2.8,1.2h-17.98s-2.36,1.16-3.53,1.45c-1.18.29-3.54,1.55-3.54,1.55h-31.83c-10.61,3.11-21.52,5.44-32.72,7h7.08c-4.72.62-9.58,1.09-14.58,1.4-5.02.31-10.02.47-15.04.47-5.59,0-11.05-.16-16.36-.47-5.02-.31-10.03-.78-15.03-1.4h-7.08c-11.79-1.56-22.7-3.89-32.72-7h31.84s-2.31-1.24-3.53-1.55c-.89-.29-3.1-1.45-3.1-1.45h17.83l-5.6-2h-73.07c-3.07-1.53-6.23-2.88-9.46-4.05-3.06-1.53-6.06-3.19-8.99-4.95h93.4c-1.54-1.03-3.14-1.96-4.8-2.8-1.52-1-2.99-2.07-4.41-3.2h4.48c-3.66-2.75-7.12-5.76-10.36-9h-89.31c-.27-.53-.54-.93-.8-1.2-.27-.27-.67-.53-1.2-.8h19.25c-.26-.52-.68-.94-1.2-1.2-.27-.27-.53-.53-.8-.8h3.49c-2.63-2.93-5.18-5.93-7.64-9h2.82l-4.2-7h-3.75l-4.21-7h-8.92l-3.6-8h9.05l-.8-2h-5.73c-.26-1.1-.58-2.19-.94-3.27-.32-1.29-.79-2.54-1.39-3.73h3.55l-.8-2h13.72c-.28-1.1-.59-2.19-.94-3.27-.32-1.24-.62-2.49-.94-3.73h-7.05c-.26-.53-.4-1.2-.4-2h-7.53l-.44-3h.4c0-1.07-.27-2.4-.8-4h-25.23l-1.35-9h34.07c-.3-1.24-.46-2.33-.46-3.27,0-1.24-.16-2.49-.47-3.73h7.83v-1.98c.59-.88.45-1.77,0-2.65v-3.37h-57v-2h13v-5h57v-2h-12.56c0-1.24-.14-2.33-.44-3.27v-3.73h-34v-9h12v-2h18v-2h-46v-9h-22v-4h72v-2h-21v-9h6v-4h-1v-5h15v-9h-38v-2h85v-2.33c.42-1.18,0-3.09,0-3.09v-3.58h-23v-5c.27-1.33.53-2.67.8-4h12.81c.26-.53.4-1.2.4-2h-89.87c.27-.53.4-1.2.4-2s.13-1.47.4-2h80.48l2.25-9h-18.08l1.2-4h-29.56l.89-3h9.72s.59-1.23.89-2.11c.3-.88.89-2.89.89-2.89h-4.78l1.59-4h2.21c.62-1.24,1.24-2.33,1.87-3.27.62-1.24,1.09-2.49,1.39-3.73h.55l3.61-6h-1.26c.62-1.24,1.24-2.33,1.87-3.27.92-1.24,1.86-2.49,2.79-3.73h-3.72c1.19-1.5,2.4-3,3.6-4.5,1.21-1.8,2.4-3.3,3.61-4.5h-3.97c.27-.53.53-.93.8-1.2s.53-.53.8-.8h-4.23l1.99-2h-.68c.54-.53.94-.93,1.2-1.2.27-.27.53-.53.8-.8h-7.62c.54-.53,1.2-1.2,2-2,.8-.8,1.6-1.47,2.4-2h10.6c1.48-1.19,3.04-2.28,4.66-3.27l4.66-3.73h-4.94l3.2-2h-7.17c.53-.53,1.06-.93,1.59-1.2.54-.27,1.07-.53,1.6-.8h22.81c2.12-1.21,4.3-2.3,6.53-3.27,2.17-1.24,4.36-2.49,6.53-3.73h-1.17c1.6-.8,3.21-1.47,4.8-2,1.6-.8,3.21-1.47,4.8-2h8.91s1.77-1.67,2.66-1.97l3.53-1.03h-13.27c8.85-3.42,18.27-5.76,28.29-7h11.94c11.49-1.87,23.59-2.8,36.26-2.8s24.32.93,35.81,2.8h-11.49c9.72,1.24,19.46,3.58,29.18,7h13.27s2.2.74,3.09,1.03c1.17.3,3.53,1.97,3.53,1.97h-7.87c4,1.33,7.33,2.67,10,4h1.5c2.49,1.24,4.82,2.49,7,3.73,2.17.93,4.35,2.02,6.53,3.27h-22.74c.54.27,1.07.53,1.6.8.53.27,1.07.67,1.6,1.2h7.82c.54.27,1.07.53,1.6.8s.93.67,1.2,1.2h4.76l9.34,7h-11.04l4.8,4h8.33l2.4,2h.67l1.99,2h4.64l1.99,2h4.02c1.21,1.2,2.4,2.7,3.61,4.5,1.19,1.5,2.4,3,3.6,4.5h2.91c.94,1.24,1.71,2.49,2.33,3.73.94.93,1.72,2.02,2.34,3.27h1.37l1.59,3.2c.54.8,1.07,1.73,1.6,2.8h-.8c.63,1.24,1.25,2.49,1.87,3.73.62.93,1.09,2.02,1.4,3.27h-2.24l1.2,4h4.92l1.33,5h-9.89v1.8c.27.27.4.67.4,1.2h26.8c0,1.07.27,2.4.8,4h-37.14l1.35,9h25.85l.44,4h53.5ZM1154.85,175h31.39c-4.72-1.77-10.02-2.65-15.92-2.65s-11.05.88-15.47,2.65ZM1232.02,195.85c-.26-1.06-.56-2.11-.9-3.15-.33-.96-.78-1.86-1.35-2.7h9.91l-1.2-2h-53.12c-.3-.8-.74-1.47-1.33-2-.59-.8-1.17-1.47-1.77-2h-100.35c-.3.53-.74,1.2-1.33,2-.3.53-.74,1.2-1.33,2h91.47l-.79,2h-14.86c-.6,1.2-1.05,2.7-1.35,4.5-.3,1.5-.6,3-.9,4.5h80.55l-1.35-3.15h0ZM1179.17,289h-56.59l1.32,7h-34.08c.56,1.67,1.16,3.32,1.8,4.95.6,1.2,1.35,2.55,2.25,4.05h25.33c.54.8,1.07,1.6,1.6,2.4.53.53,1.06,1.07,1.6,1.6h-.72l2.2,3h7.52c.59.27,1.18.67,1.77,1.2.59.27,1.17.53,1.77.8h7.06c5.02,2.4,11.05,3.6,18.13,3.6s12.97-1.2,17.68-3.6h-14.58l3.53-2h2.66l2.65-3h-11.29c-.06-.21,0-.02-.07-.24,1.75-1.25,2.81-2.51,3.24-3.76h4.99c1.79-2.7,3.29-5.7,4.5-9h3.05l.89-2.33c.59-1.87,1.18-3.42,1.77-4.67h0Z" fill-opacity=".4"/>

<path d="M973.28,223h-21.64l-.93,3.73c-.31.93-.78,2.02-1.4,3.27h12.38l-1.2,4h-10.64c-.9,2.7-2.1,5.7-3.6,9h-6.56c-1.2,3-2.85,6-4.95,9h.98c-1.15,1.43-2.2,2.93-3.15,4.5-.95,1.57-2,3.07-3.15,4.5h47.53l-5.2,6h-39.54c-1.2,1.5-2.7,3-4.5,4.5-1.72,1.42-3.37,2.93-4.95,4.5h6.08c-1.24,1.24-2.8,2.49-4.67,3.73-1.63.98-3.19,2.07-4.67,3.27h14.83l-1.8,1.35,4.05,7.65h-10.69l4.95,9h1.35l1.2,2h-.42l4.5,9h4.51l2.4,4h-34.01l3.73,7h30.97l2.4,4h-9.7l3.73,7h43.63l4.94,9h-29.32l3.73,7h-13.73l6.93,13h3.29l2.4,4h-1.14l1.2,2h-20.7l4.84,8.8.88,2.2h-13.51l2.25,4.95c.89,1.16,1.36,2.59,1.35,4.05h9.45v1.04s-1.73,5.89-4.38,7.96h11.94c-1.47,1.18-3.39,1.77-5.75,2h-90.63c-1.77-.23-3.39-.38-4.86-.68-1.18-.59-3.98-1.32-3.98-1.32h-11.85c-2.4-1.2-4.5-2.7-6.3-4.5-1.5-1.8-2.7-3.3-3.6-4.5h-8.72l-.9-1.35-3.15-7.65h15.38l-1.35-2h-42.84v2h-23v9h36.45c-.6,4.2-2.55,7.2-5.85,9h-3.51s-4.3,1.77-6.63,2h-86.65c-2.65-.23-6.19-2-6.19-2h3.54s-5.16-4.72-5.75-9h-36.41v-.29c.74-.29,1-.88,1-.88v-7.83h22v-2h44v-9h-47v-2h28v-4h-9v-7h15v-7h-25v-6h34v-9h-20v-7h1v-2h-4v-2h-12v-7h15v-4h-4v-9h1v-2h-2v-9h11v-9h-15v-7h-6v-8h39v-7h-47v-9h-1v-9h7v-9h9v-4h-12v-7h22v-4h32v-4h-44v-3h2v-2h4v-2h0v-4h0v-7h1v-9h-2v-4h2v-7h-1v-2h0v-5h1v-2h-2v-2h3v-7h4v-7h-21v-8h6v-9h-3v-7h12v-7h4v-6h-8v-4h3v-2h1v-7h.9c0-3.3,1.35-6.3,4.05-9h23.85s4.27-2.71,7.52-3h130.86c12.67.29,35.37,3,35.37,3h-23.73c12,1.8,23.4,4.8,34.2,9h-1.59c5.33,1.88,10.48,4.23,15.4,7h-1.1l3.6,2h-3.01c1.33.53,2.4,1.2,3.2,2,1,.76,2.08,1.43,3.2,2h8.69l4,3.2c1.31.78,2.52,1.72,3.6,2.8h-4.22c1.56,1.24,2.8,2.49,3.73,3.73,1.32,1,2.57,2.09,3.73,3.27h-12.29c1.18,1.17,2.27,2.41,3.27,3.73.93.93,1.87,2.02,2.8,3.27h2c2.4,3,4.5,6,6.3,9h-4.24c.8,1.07,1.47,2.4,2,4l2.4,4h20.94l2.8,7h-3.67l.93,3.73c.62.93,1.09,2.02,1.4,3.27h-4.44l.8,2h1.76c.31.62.47,1.4.47,2.33l1.4,4.67h1.3c0,.8.13,1.47.4,2h.44c.31,1.24.47,2.49.47,3.73.31.93.47,2.02.47,3.27h-5.93v2c0,.8.13,1.47.4,2h2.6v4.42c.55,1.47,0,4.42,0,4.42v4.16h4v3h-3v4h-4.56c0,.27-.15.53-.44.8v1.2h4.44c0,.27-.15.53-.44.8v1.2h18.81c-.27.53-.4,1.2-.4,2h7.5l-.44,5h-20.38c-.53,1.6-.8,2.93-.8,4h0ZM796,214h44v5h-32v1h32.61c2.06-.61,4.86-1,4.86-1h20.34l8.84-5h-6.09l2-2h-20.59c.8-.8,1.33-1.47,1.6-2h-4.27l1.2-2h4.55l1.2-4h2.27l.44-3h-2.66l.43-4.33c0-2.89-.43-5.78-1.3-8.67h-2.75c-.31-.65-.58-1.32-.8-2,0-.8-.27-1.47-.8-2h6.24c-1.24-2.49-2.95-4.82-5.13-7h-.9c-.82-.81-1.77-1.49-2.8-2h-1.94c-2.95-1.33-6.04-2-9.28-2h-32.27v2h-1v2h2v7h-2v4h2v9h-2v7h0v4h1v2h-4v2h-3v2h0ZM831.45,316l-1.78-4h-6.03l-3.37-8h-17.26v8h4v4h24.45,0ZM792,316v7h8.87l-2.8-7h-6.07ZM832.23,325l-.8-2h-27.43v2h2v2h1v7h19v9h-33v6h25v7h-16v7h10v4h-28v2h62.67l-1.33-2h.58l-2.21-5h-3.59l-2.6-6.5-3.03-6.5h13.94l-2.8-6h28.62l-4.05-9h-43.66l-2.8-7h9.69l-1.2-2h0Z" fill-opacity=".4"/>

<path d="M676,323h35v6h-67v9h43v9h-38v9h5v7h-3v4h-10v5h0v4h9v9h13v2.8c0,.53-.15.93-.44,1.2h-78.69c-.29.53-.44,1.2-.44,2h30.96c-.93,3.11-2.64,5.45-5.13,7h-8.27s-3.54,1.77-6.19,2h-230.34c-2.36-.23-6.63-2-6.63-2h8.54c-2.18-1.55-3.89-3.89-5.13-7h-30.93c-.29-.53-.44-1.2-.44-2h79.14v-4h-13v-9h-9v-4h1v-5h9v-4h3v-7h-5v-9h38v-9h-43v-9h67v-6h-35v-4h10v-5h4v-5h-49v-4h-11v-7h41v-2h-33v-4h10v-4h7v-7h-1v-9h-4v-9h-7v-4h5v-9h-4v-4h7v-7h2v-7h8v-2h-8v-9h-7v-7h2v-6h1v-9h7v-9h-10v-9h1v-8h12v-7h-6v-7h-4v-2h19v-7h33v-4h-13v-5h-43v-2h5v-6h0v-7h1v-9h0v-11h-1v-4.43c0-1.14.15-2,.44-2.57h-4.42c1.18-6,5.01-9,11.49-9h226.8c6.78,0,10.61,3,11.49,9h4.27s.44,2.05-.08,3.23v3.77h1v11h1v9h-2v7h0v6h-5v2h43v5h14v4h-33v7h-19v2h4v7h7c-.62,3.11-1.71,5.44-3.27,7h-12.51c-2.07,2.67-5.04,4-8.89,4h-133.34v4h-1v9h10v9h-7v5h122.98c3.24.36,8.4,4,8.4,4h-1.24c1.55,1.56,2.64,3.89,3.27,7h-1.4v6h7v9h7v2h-7v7h-2v7h-7v4h5v9h-6v4h7v9h4v1.73c0,3.33-.74,5.76-2.21,7.27h.88c-2.36,3.33-5.6,5-9.73,5h-122.94v2h-7v4h-10v4h33v2h-41v7h12v4h49v4h135.8c1.47.55,3.54,1,3.54,1h-4.86l6.63,5h-10.32c1.18,1.6,1.92,2.93,2.22,4h0Z" fill-opacity=".4"/>

<path d="M380.2,334h22.8v9h-23v9h-8v2h1v2h-14v7h5v9h4v2h-56v4h3v9h57v1.8c0,2.4-.93,4.8-2.8,7.2h10.8c-1.07,1.07-1.87,1.73-2.4,2h-12.62s-3.54,1.78-6.19,2h-207.79c-2.95-.22-6.63-2-6.63-2h11.22c-.53-.27-1.33-.93-2.4-2h-10.4c-1.87-2.4-2.8-4.8-2.8-7.2v-1.8h-57v-9h-3v-4h57v-2h-4v-9h-6v-7h14v-2h-1v-2h9v-9h23v-6.2c0-1.33.13-2.27.4-2.8h-23.2l1.2-4h-15.31l1.33-3h-32.63c.27-.53.8-1.2,1.6-2h30.02c1.07-1.6,2-2.67,2.8-3.2l3.2-2.8h-33.06l8.4-7h86.22l4.4-4h-29.39l2.21-3h6.87l7.93-7h-39.77l4.4-4h-3.18l2.4-2h5.56l2.4-2h4.77l8.4-7h2.34l10.35-9h-3.28l10.35-9h.7l10.8-9h-.73l4.8-4h-.52l7.29-6h-79.91l-7.52-3h-3.64c-.79-.53-1.47-1.21-2-2h8.21c-.53-1.07-1.07-2.4-1.6-4h-2.76c-.27-.53-.4-1.2-.4-2h-8.46v-9h-6v-3h2v-2h6v-2h10v-5h-5v-4h1v-13h2v-7h-2v-2h-1v-2h17v-4.19c0-1.46.29-3.06.88-4.81h-22.96c2.06-4.67,5.74-7,11.04-7h195.16c4.71,0,8.39,2.33,11.04,7h22.52c.88,1.17,1.32,2.77,1.32,4.81v4.19h-17v2h1v2h3v7h-2v13h-2v4h5v5h-10v2h-6v2h-2v3h7v9h8v2h3v.8c0,1.33-.13,2.4-.4,3.2h-7.6c0,.27-.27.93-.8,2h2.05c-.6,2.1-2.25,4.5-4.95,7.2l-2.25,1.8h.27l-4.4,4h.74l-10.35,9h-.7l-10.35,9h3.28l-10.35,9h-2.35l-7.93,7h-5.2l-2,2h-5.54l-2.4,2h3.18l-4.4,4h39.77l-7.93,7h-6.86l-2.21,3h29.39l-4.4,4h-86.23l-7.93,7h33.19l-5.83,5h87.36l5.31,1h-29.47c.8.27,1.73.93,2.8,2h32.86l1.33,3h14.94c.53,1.07,1.07,2.4,1.6,4h0Z" fill-opacity=".4"/>

<!-- layer d -->
<path d="M1944,203v5h-48v.8c.28.27.44.67.44,1.2h30.56v2h-11.13s.44,2.71.13,4.48v4.52h-1v6h-20v7h18v7h5v6h-1v7h-16v9h23v9h-21.38l-.42,4h8.8v4.2c0,.8-.15,1.73-.46,2.8h5.91c-.3.53-.46,1.2-.46,2v2h9v7h11v2.2c-.27,1.07-.4,2.13-.4,3.2s-.13,2.27-.4,3.6h-1.2l-.4,4h-25.22c-.31,1.5-.61,3-.9,4.5,0,1.5-.3,3-.9,4.5h15.97l-1.4,7h-10.55l-2.69,9h-7.18l-2.4,6h-8.92c-.63,1.56-1.38,3.06-2.25,4.5-.62,1.56-1.37,3.06-2.24,4.5h-11.85l-2.71,4.5c-.9,1.5-1.79,3-2.69,4.5h22.65c-1.21,1.5-2.4,3-3.61,4.5-.89,1.5-1.95,3-3.14,4.5h4.37l-1.99,2h8.54l-3.6,4h-15.88l-4,4h-7.18c-3.75,3.19-7.66,6.19-11.7,9h-29.21l-11.67,7h39.19c-5.29,2.8-10.58,5.13-15.87,7h14.33l-12.13,3.73c-4.15,1.27-8.35,2.36-12.6,3.27h1.54c-2.06.27-4.27.53-6.63.8-2.06.53-4.27.93-6.63,1.2h45.09c-4.12.53-8.54.93-13.26,1.2-4.42.27-9.14.4-14.15.4-4.72,0-9.43-.13-14.14-.4-4.43-.27-8.7-.67-12.82-1.2h-45.53c-2.07-.27-4.27-.67-6.63-1.2-2.06-.27-4.27-.53-6.63-.8h.21c-9.33-1.87-17.58-4.2-24.73-7h-12.21c-5.6-1.87-10.73-4.2-15.39-7h-38.6c-1.81-1.04-3.68-1.97-5.6-2.8-1.6-1.07-3.21-2.13-4.8-3.2h29.17c-4.04-2.81-7.95-5.81-11.7-9h7.18l-4.42-5h14.84l-3.6-4h-9.11c-.8-.8-1.34-1.47-1.6-2h-4.44c-2.4-2.4-4.65-5.4-6.75-9h-22.88l-2.71-4.5c-.9-1.5-1.8-3-2.69-4.5h12.02c-.63-1.56-1.39-3.06-2.25-4.5-.9-1.5-1.65-3-2.25-4.5h9.2c-1.07-2.13-1.87-4.13-2.4-6h6.53l-2.69-9h10.24c-.27-1.1-.58-2.19-.94-3.27-.32-1.24-.62-2.49-.94-3.73h4.48c-.29-1.5-.6-3-.9-4.5,0-1.5-.29-3-.89-4.5h-17.25l-.4-4h-6.16l-.88-7.65v-1.35h26.44c-.29-1.2-.44-2.25-.44-3.15v-3.85h-18.89l-.45-4h1.79c-.29-1.07-.45-2-.45-2.8v-4.2h-4.4l-.4-4h-.8c0-1.5-.13-3-.4-4.5v-4.5h-1.6c0-1.5-.14-3-.4-4.5v-4.5h3v-6h7v-7h-5v-7h-1v-7h-18.44c.3-1.07.44-2,.44-2.8v-3.2h26v-9h3.52c.3-.53.44-1.2.44-2h33.04v-3h-24.39l.4-4h-12.26l.47-1.87c0-2.18.15-3.89.47-5.13h-5.3c.27-1.07.4-2,.4-2.8,0-1.07.14-2.13.4-3.2h1.41c.27-.53.4-1.2.4-2s.13-1.47.4-2h5.74c.32-1.24.62-2.33.94-3.27.3-1.24.62-2.49.94-3.73h-27.09c.62-1.24,1.09-2.33,1.4-3.27.32-1.24.62-2.49.94-3.73h6.5l2.79-7h-48.07l3.6-8h24.11l.8-2h20.77c1.19-3,2.85-6,4.95-9h-11.92l1.2-2h16.42s2.21-3.42,3.1-4.89c1.17-1.77,3.53-5.11,3.53-5.11h13.46c.53-.53,1.06-1.2,1.59-2,.8-.8,1.47-1.47,2-2h1.73c.79-.53,1.47-1.21,1.99-2,.8-.8,1.47-1.47,2-2h-1.78l8.4-7h.41l9.8-7h.77l7.2-4c.53-.53,1.06-.93,1.6-1.2.79-.27,1.59-.53,2.39-.8h-8.04c.53-.53,1.19-.93,1.99-1.2.8-.27,1.47-.53,2-.8h5.15c1.6-.8,3.2-1.47,4.8-2,1.7-.74,3.44-1.41,5.2-2h4.07s2.2-1.71,3.09-2.01c1.17-.29,3.53-.99,3.53-.99h-.87c1.47-.53,2.79-.93,3.98-1.2l4.42-.8h.89c6.78-1.33,13.71-2.4,20.77-3.2,7.38-.8,15.04-1.2,22.99-1.2,15.04,0,29.48,1.47,43.33,4.4h-.89l4.42.8c1.47.27,2.8.67,3.99,1.2h1.32s2.21.7,3.1.99c1.17.29,3.53,2.01,3.53,2.01h-2.54c1.86.53,3.6,1.2,5.2,2,1.86.53,3.6,1.2,5.2,2h-3.64l4.4,2h9.28c.53.27,1.07.53,1.6.8.8.27,1.6.67,2.39,1.2h.16l7.19,4h-.78c1.76,1.17,3.48,2.41,5.13,3.73,1.87.93,3.59,2.02,5.14,3.27h-1.37c1.47,1.16,2.87,2.41,4.2,3.73,1.25.93,2.49,2.02,3.74,3.27h1.76c.8.53,1.47,1.2,2,2,.8.8,1.46,1.47,1.99,2h-.92l3.6,4h-12.63s2.21,3.34,3.1,5.11c1.17,1.47,3.53,4.89,3.53,4.89h-16.29l1.2,2h12.4c.89,1.2,1.79,2.7,2.69,4.5l2.71,4.5h-20.77l1.2,2h-23.62l3.6,8h47.87l2.81,7h-7.2c.32,1.24.62,2.49.94,3.73.3.93.62,2.02.94,3.27h-3.63l1.4,7h20.78c.54,1.6.8,2.93.8,4h3.19c.26,1.07.4,2.13.4,3.2.26.8.4,1.73.4,2.8h1.51c.32,1.24.47,2.96.47,5.13,0,.93.15,1.56.47,1.87h26.61,0ZM1756.27,175.46c-4.72,0-8.99,1.18-12.82,3.54h25.65c-3.24-2.36-7.52-3.54-12.82-3.54h0ZM1829.44,207c0-1.33-.14-2.4-.44-3.2v-.8h-26.59c0-1.24-.16-2.33-.47-3.27,0-1.24-.15-2.49-.47-3.73h-1.96c-.23-.94-.49-1.88-.79-2.8,0-1.07-.27-2.13-.8-3.2h-3.18c-.29-1.07-1.03-2.4-2.2-4h-20.79l-1.76-2.4c-.59-.79-1.34-1.47-2.21-2-1.47,1.33-2.66,2.8-3.53,4.4h-6.19c-.3.53-.6,1.2-.89,2-.3.53-.74,1.2-1.33,2h-1.41c-.26,1.07-.53,2.13-.8,3.2-.26.8-.53,1.73-.79,2.8h5.11c-.32,1.24-.63,2.49-.94,3.73v3.27h10v4h62.44ZM1812.59,212c0-.8-.15-1.47-.45-2h-52.14v2h-3.55c0,1.2-.14,2.7-.45,4.5v4.5h-26v7h18.45c0,1.24-.15,2.49-.45,3.73v2.27h2v7h5v7h-8v6h-3v9h2v9h1v4h6v7h-2v4h18.57c.29.8.43,1.73.43,2.8v4.2h-26.99l1.35,9h7.12l1.2,4h17.01c1.5,3.9,3.45,6.9,5.85,9h-4.51c3.9,3.9,9.15,5.85,15.76,5.85s12.3-1.95,16.2-5.85h-16.2c2.1-2.1,3.9-5.1,5.4-9h25.15l1.2-4h1.38l1.35-9h-11.28v-1.04c-.39-.88-.23-1.77,0-2.65v-3.31h-9v-4h-5v-7h-9v-4h22v-9h-23v-9h15v-6h1v-7h-4v-7h-19v-7h21v-6h1v-9h11.59Z" fill="#a1d5ff" fill-opacity=".95"/>

<path d="M1596,391v3h45.98c0,1.33-.43,2.67-1.32,4h-48.22c-.8,1.87-2.13,3.2-4,4h20.12s-3.53,1.93-6.19,2h-254.65c-2.65-.07-6.19-2-6.19-2h-20.54l-2.4-1.6-1.59-2.4h48.33c-.53-1.07-1.06-2.4-1.6-4h-45.72v-3h48v-7h-38v-2h-25v-7h52v-6h-48v-9h16v-4h14v-9h-7v-3.87c.32-1.56.63-3.27.94-5.13h22.87c.32-1.24.63-2.33.94-3.27.62-1.24,1.09-2.49,1.4-3.73h-30.37c.53-.53.93-1.2,1.2-2,.53-.8,1.06-1.47,1.6-2h1.56c1.58-1.89,3.32-3.63,5.21-5.21l5.22-3.79h.53-.15c1.07-.53,2-1.2,2.81-2,.8-.8,1.73-1.47,2.8-2h2.66c.53-.53,1.06-.93,1.6-1.2.53-.27.93-.53,1.19-.8h.34c1.48-1.19,3.05-2.28,4.68-3.27,1.86-1.24,3.41-2.49,4.66-3.73h-3.93c1.03-.51,1.98-1.19,2.8-2,.8-.8,1.73-1.47,2.8-2h1.36l9.81-7h4.05c2-1.43,3.96-2.93,5.85-4.5,2.1-1.8,4.2-3.3,6.3-4.5h-17.46c2-1.43,3.95-2.93,5.85-4.5,2.1-1.8,4.19-3.3,6.3-4.5h17.73c.53-.53,1.06-.93,1.59-1.2.54-.27.94-.53,1.2-.8h2.66c1.03-.51,1.98-1.19,2.79-2,.8-.8,1.73-1.47,2.8-2h-21.04c2.4-1.5,4.51-3,6.3-4.5,2.11-1.8,4.06-3.3,5.85-4.5h-2.18l2.39-2h16.48s1.18-1.55,1.77-1.85c.59-.3,1.33-1.15,1.33-1.15h-36.36l11.7-9h42.47l2.39-2h-32.81l8.41-7h19.48l4.8-4h-24.14c1.72-1.43,3.37-2.93,4.95-4.5,1.79-1.8,3.3-3.3,4.5-4.5h44.23c.54-.53.94-.93,1.2-1.2.27-.27.53-.53.8-.8h-12.06c.8-.53,1.48-1.21,2-2,.8-.8,1.46-1.47,1.99-2h-47.23c2.48-2.49,4.35-4.82,5.6-7h29.42l4.96-9h14.96c1.5-3.6,2.25-6.6,2.25-9h14.39v-2h11v-3.8c0-1.07-.14-2.13-.44-3.2h-15.47l-.89-2h-26.08l-1.33,2h10.03l-1.86,3.73c-.32.93-.78,2.02-1.4,3.27h-17.2l-.8,2h-8.85c-.29.6-.45,1.2-.45,1.8s-.15,1.2-.44,1.8c-.3,1.2-.76,2.25-1.35,3.15-.6.9-1.21,1.65-1.8,2.25h-34c-1.77,2.12-3.98,3.48-6.63,4.09-2.36.61-5.01.91-7.96.91h-83.11c-3.83,0-6.63-1.67-8.4-5h33.79c-.89-1.5-1.34-3.15-1.34-4.95v-4.05h9v-2h17v-3.8c.3-1.07.44-2.13.44-3.2h-10.08c0-.8.14-1.47.44-2h-15.8v-1.2c.3-.27.44-.53.44-.8h-33.6c.3-.53.44-1.2.44-2s.14-1.47.44-2h35.06l2.25-9h-6.17c0-.27.26-.93.8-2h-45.57c.32-1.24.78-2.33,1.4-3.27.32-1.24.62-2.49.94-3.73h67.93c.56-1.13,1.18-2.22,1.87-3.27.62-1.24,1.09-2.49,1.4-3.73h-49.21l2.71-4.5c.9-1.8,1.79-3.3,2.69-4.5h9.39c.53-.53,1.06-1.2,1.59-2,.54-.8.94-1.47,1.2-2h28.08c.8-.8,1.33-1.47,1.6-2h-25.39c.54-.53,1.07-1.2,1.6-2,.53-.8,1.07-1.47,1.6-2h22.71l2.21-3h-3.18c2.7-3.29,5.71-6.31,9.01-9h10.21l2.39-2h-20.96l2.4-2h15.15s2.21-1.32,3.09-2.2c1.01-.76,3.1-2.8,3.1-2.8h26.86l6.4-4h17.86c2.94-1.77,5.94-3.42,9.01-4.95,3.29-1.5,6.59-2.85,9.9-4.05h-43.22c.8-.53,1.6-.93,2.4-1.2,1.06-.27,1.99-.53,2.8-.8h-16.08c1.47-.53,2.66-.93,3.54-1.2,1.17-.27,2.35-.53,3.53-.8h78.69c15.04-4,31.39-6,49.08-6,20.33,0,38.46,2,54.38,6h-78.7c1.47.27,2.8.53,3.98.8,1.18.27,2.36.67,3.54,1.2h16.65c1.06.27,2,.53,2.8.8,1.07.27,2,.67,2.81,1.2h43.45c3.61,1.2,6.91,2.55,9.91,4.05,3.24,1.47,6.39,3.12,9.45,4.95h-17.52c1.13.57,2.2,1.24,3.21,2,1.06.8,2.13,1.47,3.2,2h-26.18l5.75,5h-15.35l2.4,2h21.91l2.4,2h-10.57c1.51,1.2,3.01,2.7,4.51,4.5,1.43,1.42,2.78,2.93,4.05,4.5h3.01s.6.86.89,1.15c.3.29.89,1.85.89,1.85h-22.4c.53.53.93,1.2,1.2,2,.53.8,1.06,1.47,1.59,2h25.86l1.2,2h-27.68c.77,1.28,1.44,2.61,1.99,4h-9.21l4.05,9h48.98c.62,1.24,1.09,2.49,1.39,3.73.32.93.63,2.02.94,3.27h-71.12c.62,1.24.94,2.49.94,3.73.32.93.62,2.02.94,3.27h48.07v.65c.3.3.45.75.45,1.35h6.3c.9,3,1.35,6,1.35,9h22.33l.4,4h-40.63c.26.53.4,1.2.4,2h26.4v2h15v7h-10c0,.8-.13,1.47-.4,2h-14.61c0,1.5-.16,3-.45,4.5,0,1.5-.15,3-.45,4.5h-15c-.3,1.5-.61,3-.9,4.5-.32,1.54-.77,3.04-1.35,4.5h-29.1c-.32,1.24-.62,2.49-.94,3.73-.32.93-.77,2.02-1.4,3.27h46.84l-1.59,4h12.22l-1.19,2h-44.24c-.6,1.5-1.35,3-2.24,4.5-.87,1.44-1.63,2.94-2.25,4.5h23.79c-.27.53-.67,1.2-1.2,2-.26.8-.66,1.47-1.2,2h-19.45l-4.68,7h32.34l-1.2,2h-42.44l-7.64,9h35.88s-.6.86-.89,1.15c-.3.29-.89,1.85-.89,1.85h-16.46l-2,2h2.64l-9.46,9h20.64c-.54.53-1.2,1.2-2,2-.8.8-1.6,1.47-2.4,2h-2.54l-2,2h-17.7l-10.8,9h17.44c-1.9,1.57-3.85,3.07-5.85,4.5-1.89,1.57-3.85,3.07-5.85,4.5h-3.61l-9.81,7h-1.35c-1.13.57-2.2,1.24-3.21,2-.8.8-1.59,1.47-2.39,2h3.94c-1.24.93-2.64,2.02-4.2,3.27-1.55.93-3.11,1.87-4.68,2.8l-.92.93h-.19l-1.77,1h93.28l4.42,1h-1.95c1.59.8,3.2,2.13,4.8,4h.85c1.19,1.5,1.79,3.75,1.79,6.75v2.25h-2v4h29v7h-22v9h7v9h-13v4h-16v9h48v7h-52v6h25v2h37v7h-48ZM1458.95,181h40.86c-1.17-1.87-2.95-3.2-5.3-4h-22.1c-1.77-.8-4.57-1.2-8.4-1.2-2.95,0-5.6.4-7.95,1.2h-34.93c-1.44.26-2.81.8-3.99,1.6-1.17.8-2.36,1.6-3.53,2.4h34.14c-.27.27-.53.53-.8.8-.26.27-.53.67-.8,1.2h13.61c0-.27-.27-.93-.8-2h0Z" fill="#a1d5ff" fill-opacity=".95"/>

<path d="M1356,192v2h-10.44c.29,1.47.44,2.95.44,4.42v4.58h-79.54c0,3.94-1.97,6.97-5.91,9.09-1.81.61-3.18.91-4.09.91h-91.07s-2.36-.65-3.53-1h-71.86v2h38.44c-.29,1.48-.44,2.99-.44,4.5v4.5h-15.22s-.44,1.43.22,2.32v1.68h1v5h-7v9h21v2h-72v4h23v9h46v2h-19v3h-12v8h34.57c.28,1.24.43,2.49.43,3.73v3.27h12v3h-57v4h-13v2h57v1h88.65c5.62,0,8.87,2.67,9.76,8h65.6v6h-2.81l-.89,10h-4.88l-.4,4h11.45c0,.8-.13,1.47-.4,2h-2.69c-.27.53-.4,1.2-.4,2h15.35l-1.4,7h-14.46c0,.31-.16.62-.47.93v1.07h-3.74c-.32,1.29-.79,2.54-1.39,3.73-.32.93-.63,2.02-.94,3.27h5.65c0,.27-.27.93-.8,2h-8.84c-.63,1.56-1.39,3.06-2.25,4.5-.63,1.56-1.38,3.06-2.25,4.5h9l-4.21,7h3.89l-4,6h-2.8c-1.26,1.57-2.62,3.08-4.05,4.5-1.27,1.57-2.63,3.07-4.06,4.5h-3.57c-.27.27-.53.53-.8.8-.26.27-.66.67-1.2,1.2h-19.21l-2,2h88.86c-1.8,1.5-3.61,3-5.4,4.5-1.89,1.57-3.85,3.07-5.85,4.5h-4.48c-3.11,2.18-6.84,4.51-11.2,7h-92.82c-3.05,1.83-6.2,3.48-9.45,4.95-3.35,1.22-6.65,2.57-9.9,4.05h72.82c-.8.27-1.73.53-2.8.8-.8.27-1.73.67-2.81,1.2h-18.32l-3.2.8c-1.07.27-2.13.67-3.21,1.2h-32.16c-10.61,3.11-21.52,5.44-32.71,7h7.06c-4.72.62-9.58,1.09-14.58,1.4-5.02.31-10.02.47-15.04.47-5.59,0-11.05-.16-16.36-.47-5.01-.31-10.02-.78-15.03-1.4h-7.08c-11.79-1.56-22.69-3.89-32.71-7h31.51c-1.02-.52-2.09-.92-3.2-1.2-.8-.27-1.73-.53-2.81-.8h17.52l-5.6-2h-73.07c-3.07-1.53-6.23-2.88-9.46-4.05-3.06-1.53-6.06-3.19-8.99-4.95h94.17c-1.8-1.2-3.67-2.29-5.6-3.27-1.76-1.17-3.48-2.41-5.13-3.73h5.23c-3.66-2.75-7.12-5.76-10.35-9h-89.32c-.27-.53-.53-.93-.8-1.2-.27-.27-.66-.53-1.2-.8h19.25c-.26-.52-.68-.94-1.2-1.2-.26-.27-.53-.53-.8-.8h3.51c-2.71-3-5.25-6-7.65-9h2.54l-3.61-6h-4.06l-4.2-7h-8.7l-4.05-9h9.27l-.8-2h-5.73c-.27-1.1-.57-2.19-.92-3.27-.33-1.29-.8-2.54-1.4-3.73h3.55l-.8-2h13.72c-.27-1.1-.58-2.19-.94-3.27-.32-1.24-.62-2.49-.94-3.73h-7.05c-.26-.53-.39-1.2-.39-2h-7.56c-.27-.53-.4-1.2-.4-2h.38c0-1.07-.27-2.4-.8-4h-25.23l-1.35-9h34.08c-.32-1.24-.47-2.33-.47-3.27,0-1.24-.16-2.49-.47-3.73h7.22v-2.81c1.19-.88,1.05-1.77,1-2.65v-3.54h-58v-2h13v-5h57v-2h-12.57c0-1.24-.14-2.33-.43-3.27v-3.73h-34v-8h12v-2h19v-3h-46v-9h-23v-4h72v-2h-21v-9h7v-5h-2v-4h16v-9h-38v-2h84v-2.16c1.03-1.18,1-3.1,1-3.1v-3.75h-23v-5c.27-1.33.54-2.67.8-4h12.8c.27-.53.4-1.2.4-2h-90.26c.27-.53.4-1.2.4-2s.13-1.47.4-2h80.49l2.24-9h-18.08l1.2-4h-29.56l.89-3h9.81c.27-.53.54-1.2.8-2,.27-.8.53-1.47.8-2h-4.69l1.6-4h2.2c.56-1.13,1.18-2.22,1.87-3.27.6-1.19,1.07-2.44,1.4-3.73h.25l4.2-7h-1.56c.56-1.13,1.18-2.22,1.87-3.27.94-1.24,1.87-2.49,2.79-3.73h-3.32c1.06-1.33,2.13-2.67,3.2-4,1.07-1.6,2.13-2.93,3.21-4h-3.57c.27-.53.54-.93.8-1.2.27-.27.54-.53.8-.8h-4.33l2.21-3h-.78c.53-.53.93-.93,1.19-1.2.27-.27.54-.53.8-.8h-7.61c.53-.53,1.19-1.2,1.99-2,.8-.8,1.6-1.47,2.4-2h10.59c1.48-1.19,3.04-2.28,4.66-3.27l4.66-3.73h-4.94l3.21-2h-7.18c.53-.53,1.06-.93,1.6-1.2l1.59-.8h22.81c2.12-1.21,4.3-2.3,6.53-3.27,2.19-1.24,4.36-2.49,6.53-3.73h-1.66s3.49-1.65,5.3-2.26c1.71-.86,5.3-2.74,5.3-2.74h8.69c.8-.53,1.6-.93,2.4-1.2l3.2-.8h-12.97c8.85-2.93,18.28-4.93,28.3-6h11.94c11.49-1.6,23.58-2.4,36.24-2.4s24.32.8,35.81,2.4h-11.49c9.72,1.07,19.46,3.07,29.18,6h13.58c1.06.27,1.99.53,2.8.8,1.07.27,2.13.67,3.21,1.2h-8.09l11.05,5h.97c2.49,1.24,4.82,2.49,7,3.73,2.17.93,4.35,2.02,6.53,3.27h-22.73l1.59.8c.54.27,1.07.67,1.6,1.2h7.83l1.59.8c.54.27.94.67,1.2,1.2h4.76l9.34,7h-11.04l4.8,4h8.33l2.4,2h.57l2.21,3h4.52l1.99,2h4.43c1.06,1.07,2.13,2.4,3.2,4,1.07,1.33,2.13,2.67,3.2,4h3.31c.94,1.24,1.71,2.49,2.34,3.73.92.93,1.71,2.02,2.33,3.27h1.11c.62,1.24,1.24,2.49,1.87,3.73.62.93,1.24,2.02,1.86,3.27h-1.07c.63,1.24,1.25,2.49,1.87,3.73.62.93,1.09,2.02,1.4,3.27h-2.24l1.2,4h4.36l1.2,4h-8.8v1.8c.26.27.4.67.4,1.2h26.8c0,1.07.26,2.4.79,4h-37.53l1.35,9h25.25l.44,4h53.49ZM1153.46,179h31.39c-4.72-1.77-10.02-2.65-15.91-2.65s-11.05.88-15.48,2.65ZM1230.63,199.85c-.26-1.06-.56-2.11-.9-3.15-.29-.9-.74-1.8-1.34-2.7h9.9l-1.2-2h-53.12c-.3-.8-.73-1.47-1.33-2-.59-.8-1.17-1.47-1.76-2h-100.36c-.3.53-.74,1.2-1.33,2-.29.53-.73,1.2-1.33,2h91.48l-.8,2h-14.87c-.6,1.2-1.05,2.7-1.35,4.5-.29,1.5-.6,3-.89,4.5h80.55l-1.35-3.15h0ZM1177.77,294h-56.59l1.33,7h-34.08c.55,1.67,1.15,3.32,1.79,4.95.6,1.2,1.35,2.55,2.25,4.05h25.34l1.59,2.4c.53.53,1.07,1.07,1.6,1.6h-.61l2,2h7.61c.68.3,1.34.78,2.01,1.43l1.47.57h7.14c5.01,2.4,11.05,3.6,18.12,3.6s12.98-1.2,17.68-3.6h-14.58l3.53-2h2.78l2.39-2h-11.2c.54-.53,1.07-1.07,1.6-1.6.8-.8,1.33-1.6,1.6-2.4h4.99c1.8-2.7,3.3-5.7,4.5-9h3.06l.87-2.33c.6-1.87,1.18-3.42,1.77-4.67h0Z" fill="#a1d5ff" fill-opacity=".95"/>
<path d="M971.89,227h-21.64l-.93,3.73c-.31.93-.78,2.02-1.4,3.27h12.38l-1.2,4h-10.64c-.9,2.7-2.1,5.7-3.6,9h-6.56c-1.2,3-2.85,6-4.95,9h.98c-1.15,1.43-2.2,2.93-3.15,4.5-.95,1.57-2,3.07-3.15,4.5h47.96l-6.07,7h-39.63c-1.07,1.33-2.4,2.67-4,4-1.53,1.27-2.99,2.6-4.4,4h5.55c-1.24,1.24-2.8,2.49-4.67,3.73-1.63.98-3.19,2.07-4.67,3.27h14.83l-1.8,1.35,4.05,7.65h-10.69l4.95,9h1.35l1.2,2h-.42l4.5,9h4.51l2.4,4h-34.01l3.73,7h30.97l2.4,4h-9.7l3.73,7h43.63l4.95,9h-29.32l3.73,7h-13.73l6.93,13h3.29l2.4,4h-1.14l1.2,2h-20.7l4.84,8.8.88,2.2h-14.13l2.25,4.95c.89,1.16,1.36,2.59,1.35,4.05h9.45v1.2s-1.12,5.89-3.77,7.8h11.94c-1.47,1.34-3.39,1.93-5.75,2h-90.63c-1.77-.07-3.39-.22-4.86-.51-1.18-.59-3.98-1.49-3.98-1.49h-11.85c-2.4-1.2-4.5-2.7-6.3-4.5-1.5-1.8-2.7-3.3-3.6-4.5h-8.72l-.9-1.35-3.15-7.65h15.77l-1.35-2h-42.84v2h-23v9h36.45c-.6,4.2-2.55,7.2-5.85,9h-3.89s-4.3,1.93-6.63,2h-86.65c-2.65-.07-6.19-2-6.19-2h3.54s-5.16-4.56-5.75-9h-36.02v-.13c.36-.29,0-.88,0-.88v-7.99h23v-2h44v-9h-47v-2h27v-4h-9v-7h16v-7h-25v-6h34v-9h-21v-7h1v-2h-3v-2h-12v-7h15v-4h-4v-9h0v-2h-1v-9h11v-9h-15v-7h-6v-8h39v-7h-48v-9h-1v-8h7v-9h10v-5h-12v-7h22v-4h31v-4h-43v-3h2v-2h3v-2h1v-4h-1v-7h2v-9h-2v-4h2v-7h-2v-2h1v-5h0v-2h-2v-2h4v-6h4v-7h-21v-9h5v-9h-3v-6h12v-7h4v-7h-7v-4h3v-2h1v-7h.9c0-3.3,1.35-6.3,4.05-9h23.46s4.27-2.54,7.52-3h130.86c12.67.46,35.37,3,35.37,3h-23.73c12,1.8,23.4,4.8,34.2,9h-1.59c5.33,1.88,10.48,4.23,15.4,7h-1.1l3.6,2h-3.01c1.33.53,2.4,1.2,3.2,2,1,.76,2.08,1.43,3.2,2h8.06l4.67,3.73c1.53.91,2.94,2.01,4.2,3.27h-4.85c1.56,1.24,2.8,2.49,3.73,3.73,1.32,1,2.57,2.09,3.73,3.27h-11.86c1.01,1,1.94,2.07,2.8,3.2.8.8,1.6,1.73,2.4,2.8h2.43c2.4,3,4.5,6,6.3,9h-4.52c.9,1.2,1.65,2.7,2.25,4.5l2.7,4.5h20.66l2.8,7h-3.51l.8,3.2c.53.8.93,1.73,1.2,2.8h-4.27l.8,2h1.76c.31.62.47,1.4.47,2.33l1.4,4.67h1.3c0,.8.13,1.47.4,2h.44c.31,1.24.47,2.49.47,3.73.31.93.47,2.02.47,3.27h-5.55v2c0,.8.13,1.47.4,2h2.6v4.58c.17,1.47,1,4.42,1,4.42v4h2v3h-3v4h-4.56c0,.27-.15.53-.44.8v1.2h4.44c0,.27-.15.53-.44.8v2.2h18.8c-.27.53-.4,1.2-.4,2h8.1l-.4,4h-20.4c-.53,1.6-.8,2.93-.8,4h0ZM795,219h44v4h-32,32.22c2.06.55,4.86,0,4.86,0h20.76c2.91-.79,5.63-2.15,8-4h-5.66l2-2h-20.67l1.77-3h-4.36l1.2-2h4.55l1.2-4h2.29c.27-.53.4-1.2.4-2h-2.62l.47-4.67c0-3.11-.47-6.22-1.4-9.33h-2.7c-.31-.65-.58-1.32-.8-2,0-.8-.27-1.47-.8-2h6.24c-1.24-2.49-2.95-4.82-5.13-7h-.9c-.82-.81-1.77-1.49-2.8-2h-1.56c-2.95-1.33-6.04-2-9.28-2h-32.27v2h-1v2h1v7h-2v4h2v9h-1v7h0v4h0v2h-4v3h-2v2h0ZM830.45,320l-1.78-4h-6.04l-3.37-8h-17.26v8h4v4h24.45,0ZM791,320v7h8.87l-2.8-7h-6.07ZM830.84,329l-.8-2h-28.04v2h3v2h0v7h20v9h-34v6h25v7h-15v7h9v4h-28v2h62.67l-1.33-2h1.09l-2-4h-3.7l-2.6-6.5-3.03-6.5h14.18l-3.27-7h28.86l-4.05-9h-43.66l-2.8-7h9.69l-1.2-2h0Z" fill="#a1d5ff" fill-opacity=".95"/>

<path d="M675,327h35v7h-67v9h43v8h-38v9h5v7h-4v4h-9v5h1v4h8v9h13v2.8c0,.53-.15.93-.44,1.2h-78.69c-.29.53-.44,1.2-.44,2h30.58c-.93,3.11-2.64,5.44-5.13,7h-8.27s-3.54,1.93-6.19,2h-230.34c-2.36-.07-6.63-2-6.63-2h8.54c-2.18-1.56-3.89-3.89-5.13-7h-30.54c-.29-.53-.44-1.2-.44-2h79.14v-4h-13v-9h-10v-4h1v-5h9v-4h4v-7h-5v-9h38v-8h-44v-9h68v-7h-35v-5h10v-4h4v-4h-49v-4h-11v-7h41v-3h-33v-4h10v-4h7v-7h-1v-9h-4v-9h-7v-4h5v-9h-5v-4h7v-7h2v-7h8v-2h-8v-8h-6v-7h2v-7h0v-9h7v-9h-9v-9h1v-8h12v-7h-6v-7h-4v-2h19v-7h32v-4h-13v-4h-43v-2h5v-7h1v-7h1v-9h-1v-11h-1v-3.43c0-1.14.15-2,.44-2.57h-4.42c1.18-6,5.01-9,11.49-9h226.8c6.78,0,10.61,3,11.49,9h4.89s.44,1.21.3,2.39v4.61h1v10h1v9h-3v7h1v7h-5v2h43v4h13v4h-33v7h-19v2h4v7h7c-.62,3.11-1.71,5.44-3.27,7h-11.51c-2.07,2.67-5.04,4-8.89,4h-133.34v4h-1v9h10v9h-7v5h122.59c3.24.52,8.4,4,8.4,4h-.86c1.55,1.56,2.64,3.89,3.27,7h-1.4v6h7v9h7v2h-8v7h-2v7h-7v4h5v9h-5v4h7v9h4v1.73c0,3.33-.74,5.76-2.21,7.27h.88c-2.36,3.33-5.6,5-9.73,5h-122.94v2h-7v4h-10v4h33v3h-41v7h11v4h49v3h136.41c1.47.72,3.54,1,3.54,1h-4.55c2.67.8,4.67,2.13,6,4h-9.85s1.92,3.82,2.45,5h0Z" fill="#a1d5ff" fill-opacity=".95"/>

<path d="M379.2,338h22.8v9h-23v9h-8v2h1v2h-14v7h5v9h4v2h-56v4h2v9h57v1.8c0,2.4-.93,4.8-2.8,7.2h10.8c-1.07,1.07-1.87,1.73-2.4,2h-12.01s-3.54,1.95-6.19,2h-207.79c-2.95-.05-6.63-2-6.63-2h11.62c-.53-.27-1.33-.93-2.4-2h-10.4c-1.87-2.4-2.8-4.8-2.8-7.2v-1.8h-57v-9h-3v-4h56v-2h-4v-9h-5v-7h14v-2h-1v-2h8v-9h23v-6.2c0-1.33.13-2.27.4-2.8h-23.2l1.2-4h-14.64l1.2-2h-32.65l1.77-3h29.44c1.24-1.87,2.33-3.11,3.27-3.73l3.73-3.27h-32.96l7.2-6h86.59l4.86-5h-29.52l2-2h6.97l7.93-7h-39.77l4.4-4h-3.18l2.4-2h5.56l2.4-2h4.77l8.4-7h2.34l10.35-9h-3.28l10.35-9h.7l10.8-9h-.73l4.8-4h-.52l7.28-6h-79.9l-7.52-3h-3.64c-.79-.53-1.47-1.21-2-2h8.21c-.53-1.07-1.07-2.4-1.6-4h-2.76c-.27-.53-.4-1.2-.4-2h-8.06v-9h-6v-3h2v-2h5v-2h10v-5h-5v-4h2v-13h2v-7h-2v-2h-1v-2h17v-4.19c0-1.46.29-3.06.88-4.81h-22.96c2.06-4.67,5.74-7,11.04-7h195.16c4.71,0,8.39,2.33,11.04,7h22.52c.88,1.17,1.32,2.77,1.32,4.81v4.19h-17v2h1v2h2v7h-2v13h-1v4h5v5h-10v2h-6v2h-2v3h6v9h8v2h3v.8c0,1.33-.13,2.4-.4,3.2h-7.6c0,.27-.27.93-.8,2h2.65c-.6,2.1-2.25,4.5-4.95,7.2l-2.25,1.8h.27l-4.4,4h.74l-10.35,9h-.7l-10.35,9h3.28l-10.35,9h-2.35l-7.93,7h-5.2l-2,2h-5.54l-2.4,2h3.18l-4.4,4h39.77l-7.93,7h-6.97l-2,2h29.52l-4.86,5h-86l-7.93,7h33.19l-5.83,5h87.36l5.31,1h-29.62l3.1,3h32.78l1.2,2h15.41c.53,1.07,1.07,2.4,1.6,4h0Z" fill="#a1d5ff" fill-opacity=".95"/>

<!-- layer e -->
<path d="M1933,208v4h-48v.8c.3.27.44.67.44,1.2h30.56v2h-11.23s.44,2.87.23,4.64v4.36h-1v7h-20v7h18v6h5v6h-1v7h-16v9h23v9h-21.39l-.42,4h8.81v4.2c0,.8-.15,1.73-.46,2.8h5.91c-.31.53-.46,1.2-.46,2v2h9v7h11v2.2c-.27,1.07-.4,2.13-.4,3.2s-.14,2.27-.4,3.6h-1.2l-.4,4h-25.33c-.29,1.5-.6,3-.9,4.5,0,1.5-.29,3-.89,4.5h15.97l-1.4,7h-10.7l-2.4,8h-7.12l-2.81,7h-8.72c-.63,1.56-1.39,3.06-2.25,4.5-.63,1.56-1.38,3.06-2.25,4.5h-11.85c-.89,1.5-1.79,3-2.69,4.5l-2.71,4.5h22.65c-1.19,1.5-2.39,3-3.6,4.5-.9,1.5-1.95,3-3.14,4.5h4.37l-2,2h8.74l-3.99,5h-15.68l-4,4h-7.83c-3.34,2.83-6.81,5.5-10.4,8h-29.86l-11.67,7h39.18c-5.28,2.8-10.58,5.13-15.86,7h14.34l-12.13,3.73c-4.15,1.27-8.36,2.36-12.6,3.27h1.54c-2.07.27-4.27.53-6.63.8-2.07.53-4.27.93-6.63,1.2h45.09c-4.13.53-8.55.93-13.27,1.2-4.42.27-9.14.4-14.14.4-4.72,0-9.43-.13-14.15-.4-4.42-.27-8.69-.67-12.82-1.2h-45.53c-2.23-.3-4.45-.7-6.63-1.2-2.06-.27-4.26-.53-6.62-.8h.21c-9.34-1.87-17.58-4.2-24.74-7h-12.21c-5.6-1.87-10.73-4.2-15.39-7h-37.75c-2.11-1.21-4.3-2.31-6.53-3.27-1.86-1.24-3.73-2.49-5.6-3.73h29.39c-3.59-2.5-7.06-5.17-10.4-8h6.32l-4-4h14.82l-3.98-5h-8.93c-.8-.8-1.33-1.47-1.6-2h-4.44c-2.4-2.4-4.64-5.4-6.75-9h-22.88c-.89-1.5-1.79-3-2.69-4.5l-2.71-4.5h12.02c-.6-1.5-1.35-3-2.24-4.5-.87-1.44-1.63-2.94-2.25-4.5h9.39c-1.24-2.49-2.17-4.82-2.79-7h6.58l-2.4-8h10.09c-.27-1.1-.57-2.19-.92-3.27-.32-1.24-.63-2.49-.94-3.73h4.48c-.3-1.5-.6-3-.9-4.5,0-1.5-.3-3-.9-4.5h-17.25l-.4-4h-6.07l-.87-7.65v-1.35h26.44c-.3-1.2-.44-2.25-.44-3.15v-3.85h-18.9l-.45-4h1.8c-.3-1.07-.45-2-.45-2.8v-4.2h-4.4l-.4-4h-.8c0-1.5-.13-3-.4-4.5v-4.5h-1.61c0-1.5-.13-3-.39-4.5v-4.5h3v-7h7v-6h-5v-6h-1v-7h-18.44c.3-1.24.44-2.33.44-3.27v-3.73h26v-9h3.53c.29-.53.44-1.2.44-2h33.03v-2h-24.39l.4-4h-12.37l.47-1.87c0-2.18.16-3.89.47-5.13h-5.35c.32-1.24.47-2.33.47-3.27,0-1.24.15-2.49.47-3.73h1.35c.26-.53.4-1.2.4-2s.13-1.47.4-2h5.74c.3-1.24.62-2.33.92-3.27.32-1.24.63-2.49.94-3.73h-26.91c.53-1.07.93-2,1.2-2.8.26-1.07.53-2.13.8-3.2h6.65l2.81-7h-48.3l4.06-9h23.87l.8-2h20.78c1.19-3,2.85-6,4.95-9h-11.92l1.2-2h16.36c1.15-1.43,2.2-2.93,3.14-4.5,1.21-1.8,2.4-3.3,3.61-4.5h13.39c.54-.53,1.07-1.2,1.6-2,.8-.8,1.47-1.47,2-2h1.52s1.62-1.91,2.2-2.78c.89-.88,2.21-2.22,2.21-2.22h-1.39l7.2-6h1.01l9.79-7h-.16l8.39-4.67c.63-.62,1.25-1.09,1.87-1.4l2.81-.93h-8.98c.53-.53,1.2-.93,2-1.2.8-.27,1.46-.53,1.99-.8h5.17c1.55-.78,3.15-1.45,4.8-2,1.7-.74,3.44-1.41,5.2-2h4.06s2.21-1.55,3.1-1.85c1.17-.3,3.53-1.15,3.53-1.15h-.89c1.47-.53,2.8-.93,3.99-1.2l4.42-.8h.89c6.87-1.35,13.8-2.42,20.77-3.2,7.36-.8,15.03-1.2,22.99-1.2,15.03,0,29.48,1.47,43.33,4.4h-.89l4.42.8c1.47.27,2.8.67,3.98,1.2h1.33s2.21.86,3.1,1.15c1.17.29,3.53,1.85,3.53,1.85h-2.55c1.87.53,3.61,1.2,5.2,2,1.87.53,3.61,1.2,5.2,2h-3.64l4.4,2h9.08s1.17.7,1.77,1c.87.3,2.65,2,2.65,2h-.06l7.2,4h-.78c1.87,1.24,3.58,2.49,5.13,3.73,1.87.93,3.58,2.02,5.13,3.27h-.8c1.26,1,2.46,2.07,3.61,3.2,1.13.86,2.2,1.79,3.2,2.8h2.13s1.62,1.33,2.2,2.22c.89.88,2.21,2.78,2.21,2.78h-1.14l3.61,4h-12.69c1.19,1.2,2.24,2.7,3.14,4.5,1.21,1.5,2.4,3,3.61,4.5h-16.35l1.19,2h12.4c.9,1.2,1.8,2.7,2.71,4.5.9,1.5,1.79,3,2.69,4.5h-20.76l1.2,2h-23.85l4.05,9h47.64l2.79,7h-7.05c.26,1.07.53,2.13.79,3.2.27.8.54,1.73.8,2.8h-3.49l1.4,7h20.78c.53,1.6.8,2.93.8,4h3.11c.32,1.24.47,2.49.47,3.73.32.93.47,2.02.47,3.27h1.56c.3,1.24.47,2.96.47,5.13,0,.93.15,1.56.47,1.87h26.6ZM1745.18,179.46c-4.72,0-8.99,1.18-12.82,3.54h25.64c-3.23-2.36-7.51-3.54-12.81-3.54h0ZM1818.44,212c0-1.33-.14-2.4-.44-3.2v-.8h-26.61c0-1.24-.15-2.33-.47-3.27,0-1.24-.15-2.49-.46-3.73h-1.92c-.27-1.1-.58-2.19-.94-3.27,0-1.24-.3-2.49-.94-3.73h-3.04c-.3-1.07-1.03-2.4-2.21-4h-20.77c-.59-.8-1.18-1.6-1.77-2.4-.58-.79-1.33-1.47-2.2-2-1.47,1.33-2.66,2.8-3.54,4.4h-6.19c-.29.53-.59,1.2-.89,2-.29.53-.73,1.2-1.32,2h-1.28c-.32,1.24-.62,2.49-.94,3.73-.32.93-.62,2.02-.94,3.27h5.35c-.3,1.24-.62,2.49-.94,3.73v3.27h10v4h62.44ZM1801.59,216c0-.8-.15-1.47-.45-2h-52.14v2h-3.57c0,1.2-.14,2.7-.43,4.5v4.5h-26v7h18.45c0,1.24-.15,2.49-.45,3.73v2.27h2v7h5v7h-8v6h-3v9h2v9h1v4h5v7h-1v4h18.56c.3.8.44,1.73.44,2.8v4.2h-26.99l1.34,9h7.02l1.2,4h17.01c1.5,3.9,3.45,6.9,5.85,9h-4.5c3.9,3.9,9.15,5.85,15.75,5.85s12.31-1.95,16.21-5.85h-16.21c2.11-2.1,3.9-5.1,5.4-9h25.16l1.2-4h1.38l1.34-9h-12.17v-.88c.52-.88.66-1.77,0-2.65v-3.47h-8v-4h-5v-7h-9v-4h22v-9h-23v-9h15v-7h1v-6h-4v-6h-19v-7h21v-7h1v-9h11.59Z" fill="#fff" fill-opacity=".9"/>

<path d="M1585,395v3h45.98c0,1.33-.44,2.67-1.32,4h-48.33c-.8,1.87-2.13,3.2-4,4h20.12s-3.53,2.1-6.19,2h-254.65c-2.65.1-6.19-2-6.19-2h-20.54l-2.4-1.6c-.53-.8-1.06-1.6-1.6-2.4h48.34c-.53-1.07-1.06-2.4-1.6-4h-45.61v-3h48v-7h-38v-1h-25v-7h52v-7h-48v-9h16v-4h14v-9h-7v-3.87c.32-1.55.62-3.27.94-5.13h22.86c.32-1.24.63-2.33.94-3.27.62-1.24,1.09-2.49,1.4-3.73h-30.48c.53-.53.93-1.2,1.2-2,.53-.8,1.06-1.47,1.59-2h2.15c1.4-1.68,2.95-3.23,4.63-4.63l4.63-3.37h1.12-.44s2.21-1.99,3.1-2.88c.89-.88,3.09-2.12,3.09-2.12h2.36c.53-.53,1.06-.93,1.6-1.2.53-.27.93-.53,1.19-.8h.34c1.48-1.19,3.04-2.29,4.68-3.27,1.86-1.24,3.41-2.49,4.66-3.73h-3.94c1.07-.53,2-1.2,2.81-2,.8-.8,1.73-1.47,2.8-2h1.37l9.81-7h4.05c2-1.43,3.95-2.93,5.85-4.5,2.1-1.8,4.19-3.3,6.3-4.5h-17.45c2-1.43,3.95-2.93,5.85-4.5,2.1-1.8,4.19-3.3,6.3-4.5h17.73c.53-.53,1.06-.93,1.59-1.2.54-.27.93-.53,1.2-.8h2.66c1.03-.51,1.98-1.19,2.8-2,.8-.8,1.73-1.47,2.81-2h-21.04c2.4-1.5,4.51-3,6.3-4.5,2.11-1.8,4.06-3.3,5.85-4.5h-2.18l2.39-2h16.63c.54-.53,1.07-.93,1.6-1.2.53-.27.93-.53,1.2-.8h-36.21l11.7-9h42.47l2.39-2h-32.81l8.4-7h19.48l4.8-4h-24.07s3.32-3.54,4.87-5.09c1.76-1.77,4.42-4.91,4.42-4.91h44.31c.53-.53.93-.93,1.2-1.2.27-.27.53-.53.8-.8h-12.06c.79-.53,1.47-1.21,2-2,.79-.8,1.46-1.47,1.99-2h-47.24c2.49-2.49,4.36-4.82,5.6-7h29.43l4.96-9h14.96c1.5-3.6,2.25-6.6,2.25-9h14.5v-2h11v-2.8c0-1.07-.14-2.13-.44-3.2h-15.47l-.89-2h-26.08l-1.33,2h9.93c-.62,1.24-1.24,2.49-1.87,3.73-.3.93-.77,2.02-1.39,3.27h-17.16l-.89,1h-8.81c-.29.6-.45,1.2-.45,1.8s-.15,1.2-.45,1.8c-.29,1.2-.74,2.25-1.34,3.15-.61.9-1.21,1.65-1.8,2.25h-32.52c-1.82,2.12-4.09,3.48-6.82,4.09-2.42.61-5.16.91-8.19.91h-85.44c-3.94,0-6.82-1.67-8.64-5h35.39c-.9-1.5-1.35-3.15-1.35-4.95v-4.05h9v-2h17v-2.8c.3-1.07.44-2.13.44-3.2h-10.08c0-.8.14-1.47.44-2h-15.8v-2.2c.3-.27.44-.53.44-.8h-33.6c.3-.53.44-1.2.44-2s.14-1.47.44-2h34.95l2.24-9h-6.16c0-.27.26-.93.79-2h-45.55c.32-1.24.78-2.33,1.4-3.27.32-1.24.62-2.49.94-3.73h67.93c.56-1.13,1.18-2.22,1.87-3.27.62-1.24,1.09-2.49,1.4-3.73h-49.21l2.71-4.5c.89-1.8,1.79-3.3,2.69-4.5h9.39c.53-.53,1.06-1.2,1.59-2,.53-.8.93-1.47,1.2-2h28.08c.8-.8,1.33-1.47,1.6-2h-25.39c.54-.53,1.07-1.2,1.6-2,.53-.8,1.06-1.47,1.6-2h22.82l1.99-2h-3.06c2.71-3.3,5.7-6.3,8.99-9h10.1l2.65-3h-21.09l2.39-2h15.46c1.03-.51,1.98-1.19,2.79-2,1.07-.8,2-1.47,2.8-2h27.15l6.4-4h18.02s5.89-4.05,8.84-5.53c3.24-1.47,9.73-4.47,9.73-4.47h-43.06c.8-.53,1.6-.93,2.4-1.2.94-.23,1.87-.5,2.8-.8h-16.08c1.47-.53,2.66-.93,3.53-1.2,1.18-.27,2.36-.53,3.54-.8h78.69c15.04-4,31.39-6,49.08-6,20.33,0,38.46,2,54.37,6h-78.69c1.47.27,2.8.53,3.98.8,1.18.27,2.36.67,3.54,1.2h16.65c1.06.27,1.99.53,2.8.8,1.07.27,2,.67,2.81,1.2h43.61s6.78,3,9.73,4.47c3.18,1.45,9.28,5.53,9.28,5.53h-17.35c1.07.53,2.13,1.2,3.2,2,1.01.76,2.08,1.43,3.21,2h-25.92l5.2,4h-15.07l2.4,2h21.91l2.39,2h-10.48s2.95,3.25,4.43,5.02c1.4,1.4,3.98,4.98,3.98,4.98h3.17c.27.27.54.53.8.8.27.27.53.67.8,1.2h-22.31c.53.53.93,1.2,1.2,2,.53.8,1.06,1.47,1.59,2h25.86l1.2,2h-27.68c.77,1.28,1.43,2.62,1.99,4h-9.21l4.05,9h48.98c.62,1.24,1.09,2.49,1.39,3.73.32.93.63,2.02.94,3.27h-71c.62,1.24.94,2.49.94,3.73.3.93.62,2.02.94,3.27h48.06v.65c.29.3.45.75.45,1.35h6.3c.89,2.92,1.34,5.95,1.34,9h22.23l.4,4h-40.65l.43,3h26.5v2h15v6h-10c0,.8-.13,1.47-.4,2h-14.72c0,1.5-.16,3-.45,4.5,0,1.5-.16,3-.45,4.5h-15.01c-.29,1.5-.6,3-.89,4.5-.3,1.5-.76,3-1.35,4.5h-29.1c-.32,1.24-.62,2.49-.94,3.73-.32.93-.78,2.02-1.4,3.27h46.84l-1.6,4h12.23l-1.19,2h-44.28s-1.35,3.5-2.2,4.91c-.89,1.47-2.21,5.09-2.21,5.09h23.75c-.27.53-.67,1.2-1.2,2-.27.8-.67,1.47-1.2,2h-19.45l-4.68,7h32.34l-1.2,2h-42.44l-7.64,9h35.78c-.26.27-.53.53-.79.8-.27.27-.54.67-.8,1.2h-16.54l-2,2h2.64l-9.46,9h20.64c-.54.53-1.2,1.2-2,2-.8.8-1.6,1.47-2.4,2h-2.54l-2,2h-17.7l-10.8,9h17.44c-1.89,1.57-3.85,3.07-5.85,4.5-1.89,1.57-3.85,3.07-5.85,4.5h-3.62l-9.81,7h-1.35c-1.13.57-2.2,1.24-3.21,2-.8.8-1.6,1.47-2.39,2h3.94c-1.25.93-2.64,2.02-4.2,3.27-1.55.93-3.12,1.87-4.68,2.8l-.92.93h-.18l-1.77,1h93.28l4.42,1h-1.96c1.6.8,3.21,2.13,4.81,4h.95c1.21,1.5,1.8,3.75,1.8,6.75v2.25h-2v4h29v7h-22v9h7v9h-13v4h-16v9h48v7h-52v7h25v2h37v6h-48ZM1447.84,185h40.86c-1.18-1.87-2.95-3.2-5.3-4h-22.1c-1.77-.8-4.57-1.2-8.4-1.2-2.95,0-5.6.4-7.96,1.2h-34.93c-1.44.26-2.8.8-3.98,1.6-1.17.8-2.36,1.6-3.53,2.4h34.15c-.27.27-.53.53-.8.8-.26.27-.53.67-.8,1.2h13.6c0-.27-.27-.93-.8-2h0Z" fill="#fff" fill-opacity=".9"/>

<path d="M1345,196v3h-10.44c.28,1.47.44,2.95.44,4.42v3.58h-79.55c0,3.94-1.97,6.97-5.91,9.09-1.82.61-3.18.91-4.09.91h-91.15s-2.36-.49-3.53-1h-71.77v2h38.44c-.28,1.5-.44,3-.44,4.5v4.5h-15.31s-.44,1.6-.69,2.48v1.52h1v5h-6v9h21v2h-72v5h23v9h46v2h-19v2h-12v9h34.57c.29,1.24.43,2.49.43,3.73v3.27h12v2h-57v4h-13v2h57v1h88.65c5.62,0,8.87,2.67,9.75,8h65.6v7h-3.15l-.9,9h-4.63l-.4,4h11.45c0,.8-.14,1.47-.4,2h-2.7c-.26.53-.4,1.2-.4,2h15.47l-1.4,7h-14.47c0,.31-.15.62-.47.93v1.07h-3.73c-.33,1.29-.8,2.54-1.4,3.73-.3.93-.62,2.02-.94,3.27h5.56c0,.27-.27.93-.8,2h-8.85c-.6,1.5-1.35,3-2.24,4.5-.63,1.56-1.39,3.06-2.25,4.5h8.99l-4.2,7h3.88l-4,6h-2.79c-1.27,1.57-2.63,3.07-4.06,4.5-1.26,1.57-2.61,3.08-4.05,4.5h-3.57c-.27.27-.54.53-.8.8-.27.27-.67.67-1.2,1.2h-19.22l-1.99,2h88.85c-1.79,1.5-3.6,3-5.4,4.5-1.89,1.58-3.84,3.08-5.85,4.5h-4.47c-3.11,2.18-6.84,4.51-11.2,7h-92.82c-3.05,1.83-6.21,3.48-9.45,4.95-3.35,1.22-6.66,2.57-9.91,4.05h72.83c-.8.27-1.73.53-2.81.8-.8.27-1.73.67-2.8,1.2h-18.32l-3.21.8c-1.06.27-2.12.67-3.2,1.2h-32.16c-10.74,3.14-21.67,5.48-32.72,7h7.08c-4.72.62-9.58,1.09-14.6,1.4-5.01.31-10.01.47-15.03.47-5.6,0-11.05-.16-16.36-.47-5.02-.31-10.02-.78-15.03-1.4h-7.08c-11.79-1.56-22.7-3.89-32.72-7h31.52c-1.02-.52-2.1-.92-3.21-1.2-.79-.27-1.73-.53-2.8-.8h17.52l-5.6-2h-73.07c-3.07-1.53-6.23-2.88-9.46-4.05-3-1.5-6-3.15-8.99-4.95h94.17c-1.8-1.2-3.67-2.3-5.61-3.27-1.76-1.17-3.47-2.42-5.13-3.73h5.23c-3.66-2.75-7.11-5.76-10.35-9h-89.31c-.27-.53-.54-.93-.8-1.2-.27-.27-.67-.53-1.2-.8h19.25c-.26-.52-.68-.94-1.2-1.2-.27-.27-.53-.53-.8-.8h3.49c-2.63-2.93-5.18-5.93-7.64-9h2.52l-3.6-6h-4.05l-4.21-7h-8.69l-4.06-9h9.28l-.8-2h-5.73c-.27-1.1-.58-2.19-.94-3.27-.3-1.24-.77-2.49-1.4-3.73h3.56l-.8-2h13.72c-.28-1.1-.59-2.19-.94-3.27-.32-1.24-.63-2.49-.94-3.73h-7.05c-.27-.53-.4-1.2-.4-2h-7.56c-.26-.53-.39-1.2-.39-2h.37c0-1.07-.26-2.4-.79-4h-25.23l-1.35-9h34.07c-.3-1.24-.47-2.33-.47-3.27,0-1.24-.15-2.49-.47-3.73h7.33v-2.65c1.1-.88.95-1.77,1-2.65v-3.7h-58v-2h13v-5h57v-2h-12.56c0-1.07-.14-2-.44-2.8v-3.2h-34v-9h12v-2h19v-2h-46v-10h-23v-4h72v-2h-21v-9h7v-5h-2v-4h16v-9h-38v-2h84v-1.99c.93-1.18,1-3.1,1-3.1v-3.91h-23v-5c.27-1.33.53-2.67.8-4h12.81c.26-.53.39-1.2.39-2h-90.35c.27-.53.4-1.2.4-2s.13-1.47.4-2h80.48l2.25-9h-18.08l1.2-4h-29.52l.8-2h9.77s.59-1.9.89-2.78c.29-.88.89-2.22.89-2.22h-4.78l1.59-4h2.21c.55-1.13,1.18-2.22,1.87-3.27.62-1.24,1.09-2.49,1.39-3.73h.55l3.61-6h-1.26c.55-1.13,1.17-2.22,1.86-3.27l2.81-3.73h-3.72c1.19-1.5,2.4-3,3.6-4.5,1.21-1.8,2.4-3.3,3.6-4.5h-3.95c.27-.53.53-.93.8-1.2.27-.27.53-.53.8-.8h-4.23l1.99-2h-.78s1.04-1.6,1.33-1.9c.3-.29.89-1.1.89-1.1h-7.73c.54-.53,1.2-1.2,2-2,.8-.8,1.6-1.47,2.39-2h10.61c1.48-1.19,3.04-2.28,4.66-3.27l4.66-3.73h-4.94l3.2-2h-7.17c.53-.53,1.06-.93,1.59-1.2.54-.27,1.07-.53,1.6-.8h22.81c2.11-1.21,4.3-2.3,6.53-3.27,2.17-1.24,4.36-2.49,6.53-3.73h-1.17c1.6-.8,3.21-1.47,4.8-2,1.6-.8,3.21-1.47,4.8-2h9.21c.8-.53,1.6-.93,2.39-1.2,1.07-.27,2.13-.53,3.2-.8h-12.97c8.85-3.42,18.27-5.76,28.29-7h11.94c11.49-1.87,23.58-2.8,36.26-2.8s24.32.93,35.81,2.8h-11.49c9.72,1.24,19.45,3.58,29.18,7h13.57c1.07.27,2,.53,2.8.8,1.06.27,2.13.67,3.19,1.2h-7.55c4,1.33,7.33,2.67,10,4h1.5c2.49,1.24,4.82,2.49,6.99,3.73,2.24.96,4.42,2.05,6.53,3.27h-22.73c.54.27,1.07.53,1.6.8s1.06.67,1.6,1.2h7.82c.54.27,1.07.53,1.6.8s.93.67,1.2,1.2h4.76l9.33,7h-11.04l4.8,4h8.21l2.66,3h.55l1.99,2h4.63l2,2h4.02c1.21,1.2,2.4,2.7,3.61,4.5,1.19,1.5,2.4,3,3.6,4.5h2.91c.92,1.24,1.71,2.49,2.33,3.73.94.93,1.72,2.02,2.34,3.27h1.37l1.59,3.2c.54.8,1.07,1.73,1.6,2.8h-.8c.62,1.24,1.25,2.49,1.87,3.73.62.93,1.09,2.02,1.4,3.27h-2.24l1.2,4h4.46l1.2,4h-8.81v1.8c.27.27.4.67.4,1.2h26.8c0,1.07.27,2.4.8,4h-37.64l1.35,9h25.34l.44,4h53.5ZM1142.36,183h31.39c-4.72-1.77-10.02-2.65-15.92-2.65s-11.05.88-15.47,2.65ZM1219.53,203.85c-.26-1.06-.56-2.11-.9-3.15-.3-.9-.76-1.8-1.35-2.7h9.9l-1.19-2h-53.12c-.3-.8-.74-1.47-1.33-2-.59-.8-1.17-1.47-1.77-2h-100.35c-.3.53-.74,1.2-1.33,2-.3.53-.74,1.2-1.33,2h91.47l-.8,2h-14.85c-.6,1.2-1.05,2.7-1.35,4.5-.3,1.5-.6,3-.9,4.5h80.55l-1.35-3.15h0ZM1166.68,298h-56.59l1.32,7h-34.08c.6,1.8,1.21,3.45,1.8,4.95.6,1.2,1.35,2.55,2.25,4.05h25.33c.53.8,1.07,1.6,1.6,2.4.53.53,1.06,1.07,1.6,1.6h-.61l1.99,2h7.62c.59.27,1.18.67,1.77,1.2l1.76.8h7.08c5.02,2.4,11.05,3.6,18.13,3.6s12.97-1.2,17.68-3.6h-14.58l3.53-2h2.78l2.39-2h-11.2c.53-.53,1.06-1.07,1.6-1.6.8-.8,1.33-1.6,1.59-2.4h5c1.79-2.7,3.29-5.7,4.5-9h3.05s.89-2.33.89-2.33c.59-1.87,1.18-3.42,1.77-4.67h0Z" fill="#fff" fill-opacity=".9"/>

<path d="M960.74,232h-21.6l-.93,3.73c-.31.93-.78,2.02-1.4,3.27h12.38l-1.2,4h-10.64c-.9,2.7-2.1,5.7-3.6,9h-6.56c-1.2,3-2.85,6-4.95,9h.63c-1.02,1.27-1.96,2.61-2.8,4-.84,1.39-1.78,2.73-2.8,4h47.61l-6.07,7h-39.1c-1.2,1.5-2.7,3-4.5,4.5-1.72,1.42-3.37,2.93-4.95,4.5h6.08c-1.24,1.24-2.8,2.49-4.67,3.73-1.63.98-3.19,2.07-4.67,3.27h14.86l-1.6,1.2,3.6,6.8h-10.46l4.95,9h1.35l1.2,2h-.42l4.5,9h4.51l2.4,4h-34.01l3.73,7h30.98l2.4,4h-9.7l3.73,7h43.63l4.95,9h-29.32l3.73,7h-13.73l6.93,13h3.29l2.4,4h-1.14l1.2,2h-20.96l5.28,9.6.96,2.4h-14.28l2.25,4.95c.89,1.16,1.36,2.59,1.35,4.05h9.45v.36s-1.22,5.89-3.88,7.64h11.94c-1.47,1.5-3.39,2.09-5.75,2h-90.63c-1.77.09-3.39-.06-4.86-.35-1.18-.59-3.98-1.65-3.98-1.65h-12.4c-2.13-1.07-4-2.4-5.6-4-1.33-1.6-2.4-2.93-3.2-4h-9.27l-.9-1.35-3.15-7.65h14.88l-1.35-2h-42.84v2h-23v8h36.45c-.6,4.2-2.55,7.2-5.85,9h-3s-4.3,2.1-6.63,2h-86.65c-2.65.09-6.19-2-6.19-2h3.54s-5.16-4.4-5.75-9h-35.92v.04c.25-.29,0-.88,0-.88v-7.15h23v-2h44v-9h-48v-3h28v-4h-9v-6h15v-7h-25v-7h34v-9h-20v-7h1v-2h-3v-2h-12v-7h15v-4h-4v-9h0v-2h-1v-9h11v-8h-15v-7h-6v-9h39v-7h-48v-9h-1v-8h7v-9h10v-4h-13v-8h22v-4h32v-4h-44v-2h2v-2h4v-3h1v-4h-1v-7h2v-9h-2v-4h2v-7h-2v-2h1v-4h1v-2h-3v-3h4v-6h4v-7h-21v-9h5v-9h-3v-7h12v-6h4v-7h-7v-4h3v-2h1v-7h.9c0-3.3,1.35-6.3,4.05-9h23.35s4.27-2.38,7.52-3h130.86c12.67.62,35.37,3,35.37,3h-23.73c12,1.8,23.4,4.8,34.2,9h-1.59c5.33,1.88,10.48,4.23,15.4,7h-1.1l3.6,2h-3.01c1.33.53,2.4,1.2,3.2,2,1,.76,2.08,1.43,3.2,2h8.06l4.67,3.73c1.53.91,2.94,2.01,4.2,3.27h-4.32c1.33,1.07,2.4,2.13,3.2,3.2,1.13.86,2.2,1.79,3.2,2.8h-11.76c1.18,1.17,2.27,2.41,3.27,3.73.93.93,1.87,2.02,2.8,3.27h2c2.4,3,4.5,6,6.3,9h-4.52c.9,1.2,1.65,2.7,2.25,4.5l2.7,4.5h20.86l2.4,6h-3.47l.93,3.73c.62.93,1.09,2.02,1.4,3.27h-4.44l.8,2h1.76c.31.62.47,1.4.47,2.33l1.4,4.67h1.3c0,.8.13,1.47.4,2h.44c.31,1.24.47,2.49.47,3.73.31.93.47,2.02.47,3.27h-5.44v2c0,.8.13,1.47.4,2h1.6v4.74c1.06,1.46,1,4.42,1,4.42v4.84h3v2h-3v4h-4.56c0,.27-.15.53-.44.8v1.2h4.44c0,.27-.15.53-.44.8v2.2h18.8c-.27.53-.4,1.2-.4,2h7.98l-.4,4h-20.36l-.88,5ZM784,223h44v4h-32,32.11c2.06.71,4.86,0,4.86,0h20.76c2.91-.79,5.63-2.15,8-4h-5.66l2-2h-20.59c.8-.8,1.33-1.47,1.6-2h-4.34l1.33-3h4.48l1.2-4h2.27l.44-3h-2.66l.43-4.33c0-2.89-.43-5.78-1.3-8.67h-2.75c-.27-.53-.53-1.2-.8-2,0-.8-.27-1.47-.8-2h6.24c-1.24-2.49-2.96-4.82-5.13-7h-.9c-.82-.81-1.77-1.49-2.8-2h-1.45c-2.95-1.33-6.04-2-9.28-2h-32.27v2h-1v2h2v7h-3v4h3v9h-2v7h0v4h0v3h-4v2h-2v2h0ZM819.45,324l-1.78-4h-6.04l-3.37-8h-17.26v8h4v4h24.45ZM779,324v7h8.87l-2.8-7h-6.07ZM819.73,333l-.8-2h-27.93v2h3v2h0v7h20v9h-34v7h25v7h-15v6h9v4h-28v2h62.67l-1.33-2h.98l-2-4h-3.7l-2.6-6.5-3.03-6.5h14.18l-3.27-7h28.86l-4.05-9h-43.66l-2.8-7h9.69l-1.2-2h0Z" fill="#fff" fill-opacity=".9"/>

<path d="M664,331h34v7h-67v9h44v9h-38v8h5v7h-4v4h-10v5h1v4h9v9h13v3.8c0,.53-.15.93-.44,1.2h-78.69c-.29.53-.44,1.2-.44,2h30.47c-.93,3.11-2.64,5.44-5.13,7h-8.26s-3.54,1.09-6.19,1h-230.34c-2.36.09-6.63-1-6.63-1h8.54c-2.18-1.56-3.89-3.89-5.13-7h-30.44c-.29-.53-.44-1.2-.44-2h79.14v-5h-13v-9h-10v-4h1v-5h9v-4h3v-7h-5v-8h38v-9h-43v-9h67v-7h-35v-4h11v-4h4v-5h-49v-4h-11v-7h41v-3h-33v-4h10v-4h7v-7h-1v-9h-4v-9h-7v-4h5v-9h-5v-4h7v-7h2v-7h8v-2h-7v-8h-7v-7h2v-7h1v-9h6v-9h-9v-8h1v-9h12v-7h-6v-7h-4v-1h19v-7h32v-4h-13v-5h-43v-2h5v-7h1v-6h1v-9h-1v-11h-1v-4.43c0-1.14.15-2,.44-2.57h-4.42c1.18-6,5.01-9,11.49-9h226.8c6.78,0,10.61,3,11.49,9h4.78s.44,1.37.41,2.55v4.45h1v11h1v9h-3v6h1v7h-5v2h43v4h13v5h-33v7h-19v2h4v6h7c-.62,3.11-1.71,5.44-3.27,7h-11.51c-2.07,2.67-5.04,4-8.89,4h-133.34v5h-1v8h9v9h-7v5h123.48c3.24.68,8.4,4,8.4,4h-.75c1.56,1.56,2.65,3.89,3.27,7h-1.4v6h7v9h7v2h-8v7h-2v7h-7v4h5v9h-5v4h7v9h4v1.73c0,3.33-.74,5.76-2.21,7.27h.89c-2.36,3.33-5.6,5-9.73,5h-122.94v2h-7v4h-10v4h33v3h-41v7h11v4h49v4h136.3c1.47-.12,3.54,1,3.54,1h-4.55c2.67.8,4.67,2.13,6,4h-9.45c1.15,1.6,1.86,2.93,2.15,4h0Z" fill="#fff" fill-opacity=".9"/>

<path d="M368.2,342h22.8v9h-23v9h-8v2h1v2h-14v7h5v9h4v2h-56v4h2v9h57v1.8c0,2.4-.93,4.8-2.8,7.2h10.8c-1.07,1.07-1.87,1.73-2.4,2h-12.11s-3.54,2.11-6.19,2h-207.79c-2.95.11-6.63-2-6.63-2h11.72c-.53-.27-1.33-.93-2.4-2h-10.4c-1.87-2.4-2.8-4.8-2.8-7.2v-1.8h-57v-9h-3v-4h56v-2h-4v-9h-5v-7h14v-2h-1v-2h8v-9h23v-6.2c0-1.33.13-2.27.4-2.8h-23.2l1.2-4h-14.74l1.2-2h-32.57c.27-.53.8-1.2,1.6-2h29.52c1.24-1.87,2.33-3.11,3.27-3.73l3.73-3.27h-33.56l8.4-7h86.22l4.4-4h-29.28l2-2h6.97l7.93-7h-39.77l4.4-4h-3.31l2.65-3h5.43l2.4-2h4.77l8.4-7h2.34l10.35-9h-2.7l9.2-8h1.27l10.8-9h-.73l4.8-4h-.63l7.52-7h-80.02l-7.52-3h-3.64c-.79-.53-1.47-1.21-2-2h8.21c-.53-1.07-1.07-2.4-1.6-4h-2.76c-.27-.53-.4-1.2-.4-2h-7.96v-9h-6v-2h2v-3h5v-2h10v-4h-5v-4h2v-14h2v-7h-2v-2h-1v-2h17v-4.19c0-1.46.29-3.06.88-4.81h-22.96c2.06-4.67,5.74-7,11.04-7h195.16c4.71,0,8.39,2.33,11.04,7h22.52c.88,1.17,1.32,2.77,1.32,4.81v4.19h-17v2h1v2h2v7h-2v14h-1v4h5v4h-10v2h-6v3h-2v2h6v9h8v2h3v1.8c0,1.33-.13,2.4-.4,3.2h-7.6c0,.27-.27.93-.8,2h2.55c-.6,2.1-2.25,4.5-4.95,7.2l-2.25,1.8h.27l-4.4,4h.74l-10.35,9h-1.28l-9.2,8h2.7l-10.35,9h-2.35l-7.93,7h-5.2l-2,2h-5.41l-2.65,3h3.3l-4.4,4h39.77l-7.93,7h-6.97l-2,2h29.28l-4.4,4h-86.23l-7.93,7h33.19l-5.83,5h87.36l5.31,2h-29.47c.8.27,1.73.93,2.8,2h32.93l1.2,2h15.5c.53,1.07,1.07,2.4,1.6,4h0Z" fill="#fff" fill-opacity=".9"/>
</svg>
